<?xml version="1.0" encoding="UTF-8"?>
<svg version="1.1" xmlns="http://www.w3.org/2000/svg" width="236" height="236">
<path d="M0 0 C77.88 0 155.76 0 236 0 C236 77.88 236 155.76 236 236 C158.12 236 80.24 236 0 236 C0 158.12 0 80.24 0 0 Z " fill="#F9FBFA" transform="translate(0,0)"/>
<path d="M0 0 C3.25 0.0625 3.25 0.0625 7 1 C11.45200665 6.02277674 11.59538846 10.94783065 11.3984375 17.5078125 C10.53860599 25.04398277 7.84973805 32.01685811 5 39 C12.27235389 41.26858827 19.59684417 43.20645194 27 45 C27.76891517 65.99565585 27.76891517 65.99565585 23 73 C22.5875 73.66773437 22.175 74.33546875 21.75 75.0234375 C13.84687924 86.74340635 2.00429599 92.39862661 -11.5 95.3125 C-14.70836032 95.91132068 -17.73709357 96.06319009 -21 96 C-21.29003906 96.97839844 -21.29003906 96.97839844 -21.5859375 97.9765625 C-22.98640448 102.6771398 -24.41208726 107.35840891 -26 112 C-24.08191891 111.54762239 -22.16557967 111.08785537 -20.25 110.625 C-19.18265625 110.36976563 -18.1153125 110.11453125 -17.015625 109.8515625 C-14.07137313 109.1252159 -14.07137313 109.1252159 -11.80859375 107.88671875 C-10 107 -10 107 -6.8125 107.1875 C-2.27766847 106.9644755 0.10226336 105.55080917 3.88671875 103.19140625 C8.36376492 100.66737837 12.71381754 100.87561874 17.75 100.9375 C18.44738281 100.94201172 19.14476562 100.94652344 19.86328125 100.95117188 C21.57555803 100.9628998 23.28779033 100.98083347 25 101 C25 101.66 25 102.32 25 103 C25.99 103 26.98 103 28 103 C27.63108098 105.62156088 27.32833246 106.7268804 25.2578125 108.44921875 C24.55398437 108.85785156 23.85015625 109.26648438 23.125 109.6875 C22.07699219 110.31205078 22.07699219 110.31205078 21.0078125 110.94921875 C15.50408914 113.82957203 9.84025177 113.62421203 4 112 C-2.97088003 110.12112999 -7.65903107 110.46524953 -13.984375 113.9765625 C-18.44531215 116.24161199 -23.01043109 117 -28 117 C-28.40666826 126.60942031 -27.99418948 135.522778 -23 144 C-20.49552484 145.21869929 -20.49552484 145.21869929 -18 146 C-17.67 146.33 -17.34 146.66 -17 147 C-12.4136222 147.4416512 -8.28150326 147.53395969 -4 145.75 C-1.7690267 143.79789836 -0.84487793 142.84186214 0 140 C0.14979106 137.30892611 0.09000397 134.70011923 0 132 C0 132.99 0 133.98 0 135 C-0.31088368 136.67099977 -0.64080332 138.33871537 -1 140 C-7.30818278 140.35706695 -7.30818278 140.35706695 -9.9375 139 C-11.68551833 135.70961255 -11.8419348 132.55406905 -11 129 C-8.4375 125.9375 -8.4375 125.9375 -5 124 C-0.42225948 123.83937753 1.37419015 124.46942208 4.875 127.4375 C7.79459563 130.95818885 8.41992703 133.14952083 8.3359375 137.77734375 C7.58957834 142.71546426 4.88495259 146.46467571 1.0625 149.578125 C-6.72106622 154.70820274 -14.86836182 154.68012201 -24 154 C-32.97370522 152.13729541 -40.64570207 145.99315582 -45.7109375 138.453125 C-48.87140021 132.4386687 -49.23704524 126.63726667 -49 120 C-54.57306801 122.94212728 -57.98035314 125.96532606 -61.55859375 131.1328125 C-64.32949261 134.72221535 -67.7113087 136.57043623 -72 138 C-73.64371491 138.09329934 -75.29114677 138.12995144 -76.9375 138.125 C-78.21947266 138.12886719 -78.21947266 138.12886719 -79.52734375 138.1328125 C-81.82680852 138.00930254 -83.79640348 137.64420687 -86 137 C-86.50657287 131.68098483 -85.32610043 129.13515188 -82 125 C-76.30587687 119.74388635 -71.16030813 118.69554941 -63.6875 118.375 C-62.94693359 118.33632812 -62.20636719 118.29765625 -61.44335938 118.2578125 C-59.62928691 118.16418295 -57.81467884 118.08103149 -56 118 C-61.12532898 115.64234867 -65.34732046 114.78567305 -71 114.5 C-81.14942113 113.94698667 -88.59100237 110.7949996 -95.6875 103.3125 C-100.4813799 97.61711613 -102.5745189 91.46874571 -102 84 C-93.0635486 83.11030904 -85.1568535 85.14431918 -77.89453125 90.57421875 C-74.04013178 94.22441163 -71.25303132 98.47775013 -68.3984375 102.92578125 C-63.58597475 110.06381957 -57.20481802 114.03084367 -49 116 C-48.9175 114.948125 -48.835 113.89625 -48.75 112.8125 C-48.00810063 106.66691564 -45.92058197 100.86000826 -44 95 C-44.6084375 95.020625 -45.216875 95.04125 -45.84375 95.0625 C-56.75511404 94.80576202 -68.76552547 89.19343081 -76.62109375 81.54296875 C-77.07613281 81.03378906 -77.53117187 80.52460937 -78 80 C-78.52722656 79.41863281 -79.05445312 78.83726563 -79.59765625 78.23828125 C-87.77261987 68.33592974 -89.09183302 57.43938212 -88.22314453 45.01904297 C-86.9988034 33.94103298 -78.92146964 23.87270074 -70.66015625 16.88671875 C-59.77172473 9.1640867 -48.76073903 5.64505205 -35.5 5.6875 C-34.49324219 5.67138672 -33.48648438 5.65527344 -32.44921875 5.63867188 C-26.51186384 5.63478108 -22.2251448 6.11352888 -17 9 C-16.01 9.99 -16.01 9.99 -15 11 C-13.989375 11.28875 -12.97875 11.5775 -11.9375 11.875 C-9 13 -9 13 -8 15 C-8 15.66 -8 16.32 -8 17 C-8.66 17.66 -9.32 18.32 -10 19 C-11.34294481 20.65893182 -12.67744688 22.32476605 -14 24 C-14.49242187 23.71253906 -14.98484375 23.42507812 -15.4921875 23.12890625 C-18.91824404 21.58664715 -22.48250413 20.7943662 -26.125 19.9375 C-33.76013514 18.11993243 -33.76013514 18.11993243 -36 17 C-36 17.66 -36 18.32 -36 19 C-37.12277344 19.21914063 -38.24554688 19.43828125 -39.40234375 19.6640625 C-52.92332322 22.45947555 -61.47599003 26.71469103 -70 38 C-74.04534612 44.44727038 -73.73769409 51.62305906 -73 59 C-70.92551267 67.29794932 -65.15775988 74.11932359 -58.125 78.8125 C-51.42977146 82.64574496 -45.69999762 84.06898534 -38 84 C-37.55720703 83.13947021 -37.11441406 82.27894043 -36.65820312 81.39233398 C-34.9744146 78.12076696 -33.28915877 74.84995748 -31.60351562 71.5793457 C-30.88177697 70.17850207 -30.1604076 68.77746809 -29.43945312 67.3762207 C-24.37727735 57.53820731 -19.23290054 47.74830209 -14 38 C-26.83864143 36.16590837 -41.03132978 34.7331217 -52.19140625 42.53125 C-56.4682833 45.97786566 -56.4682833 45.97786566 -58.2734375 50.98828125 C-58.46237163 55.31196605 -58.44681057 57.3692086 -55.875 61 C-52.78007546 63.15299098 -50.72790821 63.73991338 -47 64 C-47.66 63.13375 -48.32 62.2675 -49 61.375 C-51.14740698 57.75125073 -51.64039015 56.1167938 -51 52 C-49.74609375 50.33203125 -49.74609375 50.33203125 -48 49 C-45.9140625 48.7421875 -45.9140625 48.7421875 -43.625 48.875 C-40.81856546 48.99326142 -38.93203516 48.98187604 -36.1875 48.25 C-34 48 -34 48 -31.625 49.5 C-30 52 -30 52 -30.125 55.6875 C-30.41375 56.780625 -30.7025 57.87375 -31 59 C-31.99 59.495 -31.99 59.495 -33 60 C-32.67 58.35 -32.34 56.7 -32 55 C-34.44480079 55.18828772 -34.44480079 55.18828772 -37 56 C-38.36020151 57.96758273 -38.36020151 57.96758273 -39 60 C-40.32 60 -41.64 60 -43 60 C-44.04625409 58.70264493 -45.04701223 57.36733028 -46 56 C-46.99 55.67 -47.98 55.34 -49 55 C-46.83610358 59.74215599 -44.86809 63.40820214 -41 67 C-41 67.66 -41 68.32 -41 69 C-45.64721748 71.78833049 -49.64288763 72.87442547 -55 72 C-60.62289954 70.34742879 -64.32700161 67.49328277 -67.1484375 62.33984375 C-69.03367216 57.15977237 -69.12707806 51.88472401 -67.11328125 46.73046875 C-61.80248721 37.50274356 -53.98361205 33.5874393 -44.16796875 30.40625 C-40.95480591 29.80414381 -37.75728887 29.80903766 -34.5 29.8125 C-33.44292847 29.81262085 -33.44292847 29.81262085 -32.36450195 29.81274414 C-25.09085404 29.89093771 -17.92471271 30.69176243 -11 33 C-10.814375 32.05125 -10.62875 31.1025 -10.4375 30.125 C-8.93271189 24.77586271 -5.57468124 20.19013343 -2 16 C-1.34 16 -0.68 16 0 16 C0 15.34 0 14.68 0 14 C0.99 14 1.98 14 3 14 C2.88512252 12.41590006 2.75765492 10.83271037 2.625 9.25 C2.52058594 7.92742188 2.52058594 7.92742188 2.4140625 6.578125 C2.00149945 4.00933618 1.28839043 2.24158985 0 0 Z " fill="#253E53" transform="translate(146,40)"/>
<path d="M0 0 C3.25 0.0625 3.25 0.0625 7 1 C11.45200665 6.02277674 11.59538846 10.94783065 11.3984375 17.5078125 C10.53860599 25.04398277 7.84973805 32.01685811 5 39 C12.27235389 41.26858827 19.59684417 43.20645194 27 45 C27.738041 65.15261959 27.738041 65.15261959 23 73 C21.35 72.67 19.7 72.34 18 72 C17.67 72.66 17.34 73.32 17 74 C16.21625 73.835 15.4325 73.67 14.625 73.5 C12.11791961 72.9376293 12.11791961 72.9376293 10 73 C10 72.34 10 71.68 10 71 C9.56171875 71.43570313 9.1234375 71.87140625 8.671875 72.3203125 C2.03409708 78.55334786 -5.87814932 83.56585163 -15 85 C-12.72564796 77.81783567 -9.96415819 70.9241798 -7 64 C-7.33 63.67 -7.66 63.34 -8 63 C-8.433125 64.11375 -8.433125 64.11375 -8.875 65.25 C-9.82302644 67.56739797 -10.84845911 69.77917115 -12 72 C-13.32 71.34 -14.64 70.68 -16 70 C-24.99628379 88.42725187 -33.06349123 105.78486965 -37 126 C-38.65 125.34 -40.3 124.68 -42 124 C-43.4646087 106.52233618 -34.63781488 91.15812492 -27 76 C-27.99 76.99 -28.98 77.98 -30 79 C-30.99 78.01 -31.98 77.02 -33 76 C-31.3475353 71.58470404 -29.25503296 67.46895636 -27.0859375 63.29296875 C-26.71143463 62.56757401 -26.33693176 61.84217926 -25.95108032 61.09480286 C-24.76119555 58.79125386 -23.56814744 56.48936046 -22.375 54.1875 C-21.5648944 52.62055114 -20.75499629 51.05349499 -19.9453125 49.48632812 C-17.96594208 45.65630558 -15.98373408 41.82776411 -14 38 C-15.41668061 37.83699885 -16.83354728 37.67561443 -18.25048828 37.51489258 C-19.03948517 37.42484451 -19.82848206 37.33479645 -20.64138794 37.24201965 C-31.7232026 36.10490305 -42.72743501 35.91827901 -52.19140625 42.53125 C-56.4682833 45.97786566 -56.4682833 45.97786566 -58.2734375 50.98828125 C-58.46237163 55.31196605 -58.44681057 57.3692086 -55.875 61 C-52.78007546 63.15299098 -50.72790821 63.73991338 -47 64 C-47.99 62.700625 -47.99 62.700625 -49 61.375 C-51.14740698 57.75125073 -51.64039015 56.1167938 -51 52 C-49.74609375 50.33203125 -49.74609375 50.33203125 -48 49 C-45.9140625 48.7421875 -45.9140625 48.7421875 -43.625 48.875 C-40.81856546 48.99326142 -38.93203516 48.98187604 -36.1875 48.25 C-34 48 -34 48 -31.625 49.5 C-30 52 -30 52 -30.125 55.6875 C-30.41375 56.780625 -30.7025 57.87375 -31 59 C-31.99 59.495 -31.99 59.495 -33 60 C-32.67 58.35 -32.34 56.7 -32 55 C-34.44480079 55.18828772 -34.44480079 55.18828772 -37 56 C-38.36020151 57.96758273 -38.36020151 57.96758273 -39 60 C-40.32 60 -41.64 60 -43 60 C-44.04625409 58.70264493 -45.04701223 57.36733028 -46 56 C-47.485 55.505 -47.485 55.505 -49 55 C-46.83610358 59.74215599 -44.86809 63.40820214 -41 67 C-41 67.66 -41 68.32 -41 69 C-45.64721748 71.78833049 -49.64288763 72.87442547 -55 72 C-60.62289954 70.34742879 -64.32700161 67.49328277 -67.1484375 62.33984375 C-69.03367216 57.15977237 -69.12707806 51.88472401 -67.11328125 46.73046875 C-61.80248721 37.50274356 -53.98361205 33.5874393 -44.16796875 30.40625 C-40.95480591 29.80414381 -37.75728887 29.80903766 -34.5 29.8125 C-33.44292847 29.81262085 -33.44292847 29.81262085 -32.36450195 29.81274414 C-25.09085404 29.89093771 -17.92471271 30.69176243 -11 33 C-10.814375 32.05125 -10.62875 31.1025 -10.4375 30.125 C-8.93271189 24.77586271 -5.57468124 20.19013343 -2 16 C-1.34 16 -0.68 16 0 16 C0 15.34 0 14.68 0 14 C0.99 14 1.98 14 3 14 C2.88512252 12.41590006 2.75765492 10.83271037 2.625 9.25 C2.52058594 7.92742188 2.52058594 7.92742188 2.4140625 6.578125 C2.00149945 4.00933618 1.28839043 2.24158985 0 0 Z " fill="#64BB92" transform="translate(146,40)"/>
<path d="M0 0 C1.21322275 3.45505807 0.81420412 5.19992391 -0.65234375 8.51171875 C-1.19858398 9.77145508 -1.19858398 9.77145508 -1.75585938 11.05664062 C-2.14580078 11.92482422 -2.53574219 12.79300781 -2.9375 13.6875 C-3.69779378 15.42005593 -4.45697132 17.15310228 -5.21484375 18.88671875 C-5.55636475 19.65201904 -5.89788574 20.41731934 -6.24975586 21.20581055 C-7.06429714 22.82964296 -7.06429714 22.82964296 -7 24 C0.63179355 21.44701568 6.95656476 19.04343524 12.75 13.25 C13.4925 12.5075 14.235 11.765 15 11 C15.66 11 16.32 11 17 11 C17 11.66 17 12.32 17 13 C18.051875 12.835 19.10375 12.67 20.1875 12.5 C23.20468796 12.10430322 25.97093972 11.90821029 29 12 C27.92046169 18.21426537 22.67336549 22.89679126 17.875 26.6875 C8.76482875 32.7472993 -3.07675252 36.21154176 -14 36 C-14.29003906 36.97839844 -14.29003906 36.97839844 -14.5859375 37.9765625 C-15.98640448 42.6771398 -17.41208726 47.35840891 -19 52 C-17.08191891 51.54762239 -15.16557967 51.08785537 -13.25 50.625 C-12.18265625 50.36976563 -11.1153125 50.11453125 -10.015625 49.8515625 C-7.07137313 49.1252159 -7.07137313 49.1252159 -4.80859375 47.88671875 C-3 47 -3 47 0.1875 47.1875 C4.72233153 46.9644755 7.10226336 45.55080917 10.88671875 43.19140625 C15.36376492 40.66737837 19.71381754 40.87561874 24.75 40.9375 C25.79607422 40.94426758 25.79607422 40.94426758 26.86328125 40.95117188 C28.57555803 40.9628998 30.28779033 40.98083347 32 41 C32 41.66 32 42.32 32 43 C32.99 43 33.98 43 35 43 C34.63108098 45.62156088 34.32833246 46.7268804 32.2578125 48.44921875 C31.55398437 48.85785156 30.85015625 49.26648438 30.125 49.6875 C29.07699219 50.31205078 29.07699219 50.31205078 28.0078125 50.94921875 C22.50408914 53.82957203 16.84025177 53.62421203 11 52 C4.02911997 50.12112999 -0.65903107 50.46524953 -6.984375 53.9765625 C-11.44531215 56.24161199 -16.01043109 57 -21 57 C-21.40666826 66.60942031 -20.99418948 75.522778 -16 84 C-13.49552484 85.21869929 -13.49552484 85.21869929 -11 86 C-10.505 86.495 -10.505 86.495 -10 87 C-5.4136222 87.4416512 -1.28150326 87.53395969 3 85.75 C5.2309733 83.79789836 6.15512207 82.84186214 7 80 C7.14979106 77.30892611 7.09000397 74.70011923 7 72 C7 72.99 7 73.98 7 75 C6.68911632 76.67099977 6.35919668 78.33871537 6 80 C-0.30818278 80.35706695 -0.30818278 80.35706695 -2.9375 79 C-4.68551833 75.70961255 -4.8419348 72.55406905 -4 69 C-1.4375 65.9375 -1.4375 65.9375 2 64 C6.57774052 63.83937753 8.37419015 64.46942208 11.875 67.4375 C14.79459563 70.95818885 15.41992703 73.14952083 15.3359375 77.77734375 C14.58957834 82.71546426 11.88495259 86.46467571 8.0625 89.578125 C0.27893378 94.70820274 -7.86836182 94.68012201 -17 94 C-25.97370522 92.13729541 -33.64570207 85.99315582 -38.7109375 78.453125 C-41.84877202 72.48173083 -42.33575031 66.60308939 -42 60 C-41.67 59.01 -41.34 58.02 -41 57 C-39 56.25 -39 56.25 -37 56 C-34.91858446 58.08141554 -35.26911239 62.18606953 -34.9375 65.0625 C-34.84662109 65.82111328 -34.75574219 66.57972656 -34.66210938 67.36132812 C-34.4375626 69.2404301 -34.21829022 71.12016095 -34 73 C-32.35 73.33 -30.7 73.66 -29 74 C-29.08701172 72.20369141 -29.08701172 72.20369141 -29.17578125 70.37109375 C-29.5548721 59.290417 -28.49400907 50.2704441 -24 40 C-23.3802832 38.57953369 -23.3802832 38.57953369 -22.74804688 37.13037109 C-14.15034855 17.62834864 -14.15034855 17.62834864 -9 9 C-7.68 9.66 -6.36 10.32 -5 11 C-3.26571391 7.68223532 -1.81233674 4.65551535 -1 1 C-0.67 0.67 -0.34 0.34 0 0 Z " fill="#24334B" transform="translate(139,100)"/>
<path d="M0 0 C1.47484863 -0.00954712 1.47484863 -0.00954712 2.97949219 -0.01928711 C9.5506819 0.09681363 15.20076616 0.63826616 20.0625 5.5 C21.073125 5.78875 22.08375 6.0775 23.125 6.375 C26.0625 7.5 26.0625 7.5 27.0625 9.5 C27.0625 10.16 27.0625 10.82 27.0625 11.5 C26.4025 12.16 25.7425 12.82 25.0625 13.5 C23.71955519 15.15893182 22.38505312 16.82476605 21.0625 18.5 C20.57007813 18.21253906 20.07765625 17.92507812 19.5703125 17.62890625 C16.14425596 16.08664715 12.57999587 15.2943662 8.9375 14.4375 C1.30236486 12.61993243 1.30236486 12.61993243 -0.9375 11.5 C-0.9375 12.16 -0.9375 12.82 -0.9375 13.5 C-2.06027344 13.71914063 -3.18304688 13.93828125 -4.33984375 14.1640625 C-16.49461835 16.6780945 -24.5404076 19.85875964 -32.4296875 29.86328125 C-33.9375 31.5 -33.9375 31.5 -36.9375 32.5 C-38.17963047 34.52100377 -38.17963047 34.52100377 -39.125 36.9375 C-39.46917969 37.74058594 -39.81335938 38.54367188 -40.16796875 39.37109375 C-41.34762126 42.63459942 -40.79040838 45.63568113 -40.5 49.0625 C-40.37818359 50.54943359 -40.37818359 50.54943359 -40.25390625 52.06640625 C-40.19632639 54.4445193 -40.19632639 54.4445193 -38.9375 55.5 C-38.46281457 57.27717593 -38.05643407 59.07289895 -37.6875 60.875 C-37.47609375 61.85210937 -37.2646875 62.82921875 -37.046875 63.8359375 C-36.9375 66.5 -36.9375 66.5 -38.25390625 68.30859375 C-40.13705866 69.64121901 -41.67692541 70.11024576 -43.9375 70.5 C-47.99903846 64.1 -47.99903846 64.1 -47.6875 61.0625 C-47.44 60.546875 -47.1925 60.03125 -46.9375 59.5 C-47.9275 59.17 -48.9175 58.84 -49.9375 58.5 C-49.4425 55.53 -49.4425 55.53 -48.9375 52.5 C-49.9275 52.5 -50.9175 52.5 -51.9375 52.5 C-52.23091888 46.82723489 -51.94309652 43.50932754 -48.9375 38.5 C-49.5975 39.49 -50.2575 40.48 -50.9375 41.5 C-51.5975 41.5 -52.2575 41.5 -52.9375 41.5 C-52.46457596 31.0956711 -46.44615527 22.07150149 -39.40625 14.75 C-27.96371258 4.3213583 -15.20749249 0.08523303 0 0 Z " fill="#7EC39D" transform="translate(110.9375,45.5)"/>
<path d="M0 0 C0.99 0.33 1.98 0.66 3 1 C3 1.99 3 2.98 3 4 C3.66 4.66 4.32 5.32 5 6 C5.5775 5.855625 6.155 5.71125 6.75 5.5625 C9.71228559 4.8219286 12.03991752 5.39452858 15 6 C15.08121924 7.60332791 15.13929134 9.20784026 15.1875 10.8125 C15.23970703 12.15248047 15.23970703 12.15248047 15.29296875 13.51953125 C15 16 15 16 13.9296875 17.7734375 C11.01569826 19.62564928 8.35424909 19.60403237 4.9375 19.8125 C3.06384766 19.94591797 3.06384766 19.94591797 1.15234375 20.08203125 C-2 20 -2 20 -4 18 C-4.66 18 -5.32 18 -6 18 C-6.66 17.34 -7.32 16.68 -8 16 C-8.33 17.32 -8.66 18.64 -9 20 C-8.3709375 20.02578125 -7.741875 20.0515625 -7.09375 20.078125 C-0.76984898 20.49717868 3.50558326 21.8457978 9 25 C9 29 9 29 7.5 30.75 C7.005 31.1625 6.51 31.575 6 32 C6 31.34 6 30.68 6 30 C5.01 30 4.02 30 3 30 C3 29.34 3 28.68 3 28 C-7.45619514 28.27883187 -16.0735774 29.0490516 -25 35 C-26.010625 34.95875 -27.02125 34.9175 -28.0625 34.875 C-32.50510426 35.01603506 -35.38552348 36.19664647 -39.375 38.02734375 C-42.55700447 39.20639005 -45.63849717 39.60864857 -49 40 C-47.92815659 34.04964506 -46.80919857 27.85831481 -43 23 C-37.98130121 20.17424076 -31.91836102 20.02948202 -26.296875 19.36767578 C-17.23392973 17.91691095 -9.03836531 11.65374012 -3 5 C-1.95710554 3.35983265 -0.94491977 1.69850064 0 0 Z " fill="#F0F8F8" transform="translate(168,113)"/>
<path d="M0 0 C1.64618594 2.46927891 2.57291754 4.35363348 3.625 7.0625 C9.22201121 19.55438009 18.43554241 26.30755525 30.9140625 31.125 C35.20951595 32.47462888 39.5318219 33.41208183 44 34 C43.3900874 38.98844309 42.36525565 43.60155346 40.9375 48.4375 C40.39416016 50.29181641 40.39416016 50.29181641 39.83984375 52.18359375 C39.56269531 53.11300781 39.28554687 54.04242188 39 55 C31.52345666 54.20964852 26.35857932 51.75325108 21.3046875 46.10546875 C19.80117736 44.10997231 18.3911946 42.07513385 17 40 C10.72553859 31.15140058 4.38836035 25.49703776 -6.6484375 23.52734375 C-8.75971198 23.29090765 -10.87993546 23.13677836 -13 23 C-11.6875 20.5 -11.6875 20.5 -10 18 C-9.01 18 -8.02 18 -7 18 C-7 17.34 -7 16.68 -7 16 C-7.763125 16.061875 -8.52625 16.12375 -9.3125 16.1875 C-12 16 -12 16 -13.8125 14.875 C-15.49106106 12.22464043 -15.20450238 10.06753576 -15 7 C-13.87851562 7.05220703 -13.87851562 7.05220703 -12.734375 7.10546875 C-11.25710937 7.14607422 -11.25710937 7.14607422 -9.75 7.1875 C-8.77546875 7.22230469 -7.8009375 7.25710937 -6.796875 7.29296875 C-3.56451097 6.95438313 -2.22365469 6.35601509 0 4 C0 2.68 0 1.36 0 0 Z " fill="#F6F9F9" transform="translate(58,101)"/>
<path d="M0 0 C1.0209375 0.309375 1.0209375 0.309375 2.0625 0.625 C3.3825 0.625 4.7025 0.625 6.0625 0.625 C6.5575 2.605 6.5575 2.605 7.0625 4.625 C8.0525 3.635 9.0425 2.645 10.0625 1.625 C9.47012758 6.48245385 8.27085969 10.29321752 6.0625 14.625 C5.0725 14.955 4.0825 15.285 3.0625 15.625 C1.94164688 17.9680809 1.94164688 17.9680809 1.0625 20.625 C0.41036461 21.96550052 -0.25129969 23.30161368 -0.9375 24.625 C-2.2575 23.965 -3.5775 23.305 -4.9375 22.625 C-13.93378379 41.05225187 -22.00099123 58.40986965 -25.9375 78.625 C-27.5875 77.965 -29.2375 77.305 -30.9375 76.625 C-32.4021087 59.14733618 -23.57531488 43.78312492 -15.9375 28.625 C-16.9275 29.615 -17.9175 30.605 -18.9375 31.625 C-19.9275 30.635 -20.9175 29.645 -21.9375 28.625 C-20.0691674 23.55232044 -17.59365099 18.79914478 -15.125 14 C-14.69896484 13.14148438 -14.27292969 12.28296875 -13.83398438 11.3984375 C-11.46962307 6.81994663 -9.83924492 3.78014735 -4.9375 1.625 C-1.9375 -0.375 -1.9375 -0.375 0 0 Z " fill="#25998B" transform="translate(134.9375,87.375)"/>
<path d="M0 0 C-0.67535475 10.63683738 -3.99381919 18.72786135 -12 26 C-18.61361495 30.23271357 -26.81685957 29.98927803 -34.39453125 28.54296875 C-36.3125 28 -36.3125 28 -39 27 C-37.92997023 18.43976184 -32.82075584 10.78059275 -26.1171875 5.5234375 C-17.75409847 -0.08475161 -9.79775767 -0.29393273 0 0 Z " fill="#44AA89" transform="translate(196,49)"/>
<path d="M0 0 C8.9364514 -0.88969096 16.8431465 1.14431918 24.10546875 6.57421875 C27.95986822 10.22441163 30.74696868 14.47775013 33.6015625 18.92578125 C38.41402525 26.06381957 44.79518198 30.03084367 53 32 C50.63311704 33.51066032 49.50596878 34.09347559 46.6953125 33.57421875 C45.84710938 33.28160156 44.99890625 32.98898438 44.125 32.6875 C39.61533777 31.30501988 35.52370092 30.72771648 30.8125 30.5 C20.75437237 29.93938305 13.33705549 26.71914429 6.3125 19.3125 C1.5186201 13.61711613 -0.5745189 7.46874571 0 0 Z " fill="#BBD4DC" transform="translate(44,124)"/>
<path d="M0 0 C1.21322275 3.45505807 0.81420412 5.19992391 -0.65234375 8.51171875 C-1.01650391 9.35154297 -1.38066406 10.19136719 -1.75585938 11.05664062 C-2.14580078 11.92482422 -2.53574219 12.79300781 -2.9375 13.6875 C-3.69779378 15.42005593 -4.45697132 17.15310228 -5.21484375 18.88671875 C-5.55636475 19.65201904 -5.89788574 20.41731934 -6.24975586 21.20581055 C-7.06429714 22.82964296 -7.06429714 22.82964296 -7 24 C0.63179355 21.44701568 6.95656476 19.04343524 12.75 13.25 C13.4925 12.5075 14.235 11.765 15 11 C15.66 11 16.32 11 17 11 C17 11.66 17 12.32 17 13 C18.051875 12.835 19.10375 12.67 20.1875 12.5 C23.20468796 12.10430322 25.97093972 11.90821029 29 12 C27.92046169 18.21426537 22.67336549 22.89679126 17.875 26.6875 C9.37172631 32.34995087 -0.65985229 35.31181054 -10.8125 34.8125 C-14.07786956 34.63733881 -14.07786956 34.63733881 -15.8125 36.9375 C-16.204375 37.618125 -16.59625 38.29875 -17 39 C-17.99 39.495 -17.99 39.495 -19 40 C-19.66 40.99 -20.32 41.98 -21 43 C-23.125 43.6875 -23.125 43.6875 -25 44 C-23.32442034 38.52524506 -21.04041464 33.39502513 -18.6875 28.1875 C-18.30916016 27.33607422 -17.93082031 26.48464844 -17.54101562 25.60742188 C-14.97210015 19.90016972 -12.1268185 14.42118834 -9 9 C-7.68 9.66 -6.36 10.32 -5 11 C-3.26571391 7.68223532 -1.81233674 4.65551535 -1 1 C-0.67 0.67 -0.34 0.34 0 0 Z " fill="#274258" transform="translate(139,100)"/>
<path d="M0 0 C0 0.66 0 1.32 0 2 C0.99 2.33 1.98 2.66 3 3 C2.40832031 3.29132813 1.81664063 3.58265625 1.20703125 3.8828125 C-4.05714729 6.61365879 -7.92888677 8.84845523 -11 14 C-11.67694339 17.16093403 -11.72048178 19.84498705 -11 23 C-8.45798563 26.58872618 -6.95903639 27.76476466 -2.6875 28.8125 C-1.800625 28.874375 -0.91375 28.93625 0 29 C-0.99 27.700625 -0.99 27.700625 -2 26.375 C-4.14740698 22.75125073 -4.64039015 21.1167938 -4 17 C-2.74609375 15.33203125 -2.74609375 15.33203125 -1 14 C1.0859375 13.7421875 1.0859375 13.7421875 3.375 13.875 C6.18143454 13.99326142 8.06796484 13.98187604 10.8125 13.25 C13 13 13 13 15.375 14.5 C17 17 17 17 16.875 20.6875 C16.58625 21.780625 16.2975 22.87375 16 24 C15.01 24.495 15.01 24.495 14 25 C14.33 23.35 14.66 21.7 15 20 C12.55519921 20.18828772 12.55519921 20.18828772 10 21 C8.63979849 22.96758273 8.63979849 22.96758273 8 25 C6.68 25 5.36 25 4 25 C2.95374591 23.70264493 1.95298777 22.36733028 1 21 C0.01 20.67 -0.98 20.34 -2 20 C0.16389642 24.74215599 2.13191 28.40820214 6 32 C6 32.66 6 33.32 6 34 C1.35278252 36.78833049 -2.64288763 37.87442547 -8 37 C-13.62289954 35.34742879 -17.32700161 32.49328277 -20.1484375 27.33984375 C-22.04964092 22.11589489 -22.19393963 16.76013421 -19.97265625 11.625 C-16.98666245 6.68767287 -14.17244076 3.10049124 -8.5625 1.3125 C-7.80066406 1.06113281 -7.03882812 0.80976562 -6.25390625 0.55078125 C-4 0 -4 0 0 0 Z " fill="#276D72" transform="translate(99,75)"/>
<path d="M0 0 C3.87084647 0.80058019 6.03797053 2.35818993 9 5 C11.65792786 10.31585572 10.7895114 18.36947546 9.12890625 23.90234375 C4.80785128 33.09698203 -1.13293653 38.06611294 -10.3515625 42.0546875 C-12.8975215 42.96342213 -15.33842943 43.54839777 -18 44 C-16.09625583 38.01283873 -13.92990007 32.22510355 -11.42578125 26.46484375 C-11.09708542 25.70071671 -10.76838959 24.93658966 -10.42973328 24.14930725 C-9.3940908 21.74387298 -8.3533965 19.34066466 -7.3125 16.9375 C-6.60317815 15.29246318 -5.8941908 13.64728209 -5.18554688 12.00195312 C-3.46088756 7.99962644 -1.73169865 3.99928569 0 0 Z " fill="#F2F9F9" transform="translate(149,81)"/>
<path d="M0 0 C3.25 0.0625 3.25 0.0625 7 1 C10.11308867 4.81353363 11.35973119 7.38418274 11 12.3125 C10 16 10 16 8.0625 17.3125 C7.381875 17.539375 6.70125 17.76625 6 18 C2.99765473 22.50351791 0.60325463 26.68723674 -1.1875 31.8125 C-1.53167969 32.78832031 -1.87585938 33.76414063 -2.23046875 34.76953125 C-2.61138672 35.87361328 -2.61138672 35.87361328 -3 37 C-7.455 37.495 -7.455 37.495 -12 38 C-12.33 37.34 -12.66 36.68 -13 36 C-13.66 36 -14.32 36 -15 36 C-15 36.66 -15 37.32 -15 38 C-15.99 37.835 -16.98 37.67 -18 37.5 C-22.39026164 36.94826155 -26.76861398 36.88706247 -31.1875 36.875 C-31.87650391 36.87048828 -32.56550781 36.86597656 -33.27539062 36.86132812 C-36.20240404 36.86982865 -38.92796537 36.98533186 -41.80078125 37.5703125 C-44 38 -44 38 -47 37 C-47 36.34 -47 35.68 -47 35 C-47.79664062 35.34224609 -47.79664062 35.34224609 -48.609375 35.69140625 C-49.66898438 36.12259766 -49.66898438 36.12259766 -50.75 36.5625 C-51.44609375 36.85253906 -52.1421875 37.14257812 -52.859375 37.44140625 C-55.30012784 38.07831803 -56.6403655 37.80248831 -59 37 C-44.8004375 28.3882283 -29.95446192 28.37518859 -14 32 C-13.01 32.33 -12.02 32.66 -11 33 C-10.814375 32.05125 -10.62875 31.1025 -10.4375 30.125 C-8.93271189 24.77586271 -5.57468124 20.19013343 -2 16 C-1.34 16 -0.68 16 0 16 C0 15.34 0 14.68 0 14 C0.99 14 1.98 14 3 14 C2.88512252 12.41590006 2.75765492 10.83271037 2.625 9.25 C2.52058594 7.92742188 2.52058594 7.92742188 2.4140625 6.578125 C2.00149945 4.00933618 1.28839043 2.24158985 0 0 Z " fill="#8BCA9F" transform="translate(146,40)"/>
<path d="M0 0 C0.33 0.99 0.66 1.98 1 3 C0.525625 3.928125 0.05125 4.85625 -0.4375 5.8125 C-3.33656082 12.13406317 -3.00329976 19.98680098 -1.34375 26.625 C2.12901819 35.24704516 8.67520817 41.97482593 17 46 C19.96369879 47.14485561 22.94485263 48.13013165 26 49 C23.28922757 51.97126708 20.86848614 52.88243734 17 54 C17.33 54.66 17.66 55.32 18 56 C17.34 56 16.68 56 16 56 C16 56.66 16 57.32 16 58 C6.22922213 56.67514876 -3.39833912 49.74720079 -9.453125 42.23046875 C-11.71331445 38.97145821 -13.55665306 35.69411074 -15 32 C-15.3609375 31.08347656 -15.721875 30.16695312 -16.09375 29.22265625 C-17.12653494 25.55003739 -17.19684866 22.43297878 -17.125 18.625 C-17.10695312 17.37976563 -17.08890625 16.13453125 -17.0703125 14.8515625 C-17.04710937 13.91054687 -17.02390625 12.96953125 -17 12 C-16.34 12 -15.68 12 -15 12 C-14.67 10.35 -14.34 8.7 -14 7 C-13.01 8.485 -13.01 8.485 -12 10 C-12.495 10.70125 -12.99 11.4025 -13.5 12.125 C-15.20530412 15.39349956 -15.16126158 17.37161436 -15 21 C-15.33 21.66 -15.66 22.32 -16 23 C-15.01 23 -14.02 23 -13 23 C-13 24.98 -13 26.96 -13 29 C-12.34 29.33 -11.68 29.66 -11 30 C-10.65977214 31.99883869 -10.32670903 33.99890722 -10 36 C-8.04783565 37.95216435 -6.46800047 38.84826645 -4 40 C-2.5428666 37.65450274 -1.96667637 36.3866798 -2.20703125 33.59765625 C-2.40683594 32.76105469 -2.60664062 31.92445312 -2.8125 31.0625 C-3.00457031 30.22847656 -3.19664063 29.39445312 -3.39453125 28.53515625 C-3.59433594 27.69855469 -3.79414062 26.86195312 -4 26 C-4.90290294 21.91838395 -5.08213225 18.18874481 -5 14 C-5.66 13.67 -6.32 13.34 -7 13 C-6.401875 11.96875 -5.80375 10.9375 -5.1875 9.875 C-3.33606301 6.63992683 -1.63454714 3.35082164 0 0 Z " fill="#25495C" transform="translate(75,75)"/>
<path d="M0 0 C1.32 0.33 2.64 0.66 4 1 C3.35946178 5.77154559 1.41035252 9.60920542 -0.6875 13.875 C-7.30505886 27.71806507 -12.06505416 40.92818991 -15 56 C-16.65 55.34 -18.3 54.68 -20 54 C-21.57278126 35.23147696 -11.42486625 14.53100176 0 0 Z " fill="#B4C4D3" transform="translate(124,110)"/>
<path d="M0 0 C2.28389585 -0.04561276 4.5222664 -0.01194021 6.80078125 0.1328125 C6.80078125 0.7928125 6.80078125 1.4528125 6.80078125 2.1328125 C8.12078125 2.4628125 9.44078125 2.7928125 10.80078125 3.1328125 C0.49221307 11.56038971 -10.77464817 18.56327315 -24.19921875 20.1328125 C-21.55769375 7.97654074 -21.55769375 7.97654074 -18.19921875 3.1328125 C-12.34520402 0.0268762 -6.47914906 0.26897566 0 0 Z " fill="#F4F7F8" transform="translate(143.19921875,132.8671875)"/>
<path d="M0 0 C-3.23221091 6.83033249 -7.35448607 12.30804781 -14 16 C-16.9331358 16.97771193 -18.88178994 17.13419011 -21.9375 17.125 C-23.21947266 17.12886719 -23.21947266 17.12886719 -24.52734375 17.1328125 C-26.82680852 17.00930254 -28.79640348 16.64420687 -31 16 C-31.50432107 10.7046288 -30.28757779 8.13295494 -27 4 C-23.5647952 1.70986347 -22.014669 1.82157027 -18 2 C-17.67 1.34 -17.34 0.68 -17 0 C-17 0.66 -17 1.32 -17 2 C-16.19175781 1.77183594 -15.38351563 1.54367188 -14.55078125 1.30859375 C-13.48214844 1.02113281 -12.41351563 0.73367187 -11.3125 0.4375 C-9.72888672 0.00244141 -9.72888672 0.00244141 -8.11328125 -0.44140625 C-4.99304618 -1.00124767 -3.02306766 -0.84690764 0 0 Z " fill="#25344C" transform="translate(91,161)"/>
<path d="M0 0 C4.47959418 1.14185734 8.14522751 2.43015167 12 5 C12.33 4.34 12.66 3.68 13 3 C13.76595745 20.34042553 13.76595745 20.34042553 9 28 C7.35 27.67 5.7 27.34 4 27 C3.67 27.66 3.34 28.32 3 29 C2.21625 28.835 1.4325 28.67 0.625 28.5 C-1.88208039 27.9376293 -1.88208039 27.9376293 -4 28 C-4 27.34 -4 26.68 -4 26 C-4.66 25.67 -5.32 25.34 -6 25 C-5.65066406 24.3709375 -5.30132812 23.741875 -4.94140625 23.09375 C-1.42458423 16.47853805 0 11.51469887 0 4 C0 2.68 0 1.36 0 0 Z " fill="#1E9C8F" transform="translate(160,85)"/>
<path d="M0 0 C0.69738281 0.00451172 1.39476562 0.00902344 2.11328125 0.01367188 C3.82555803 0.0253998 5.53779033 0.04333347 7.25 0.0625 C7.25 0.7225 7.25 1.3825 7.25 2.0625 C8.24 2.0625 9.23 2.0625 10.25 2.0625 C9.88108098 4.68406088 9.57833246 5.7893804 7.5078125 7.51171875 C6.45207031 8.12466797 6.45207031 8.12466797 5.375 8.75 C4.67632812 9.16636719 3.97765625 9.58273438 3.2578125 10.01171875 C-2.24591086 12.89207203 -7.90974823 12.68671203 -13.75 11.0625 C-18.48041475 9.7875054 -23.17966554 8.81749425 -27.75 11.03125 C-28.41 11.4128125 -29.07 11.794375 -29.75 12.1875 C-32.96126309 14.00976437 -34.66305658 14.23449602 -38.25 13.3125 C-39.405 12.9 -40.56 12.4875 -41.75 12.0625 C-29.91869127 6.02445278 -29.91869127 6.02445278 -24.1875 6.125 C-19.84704027 6.04608255 -17.48653437 4.51280828 -13.86328125 2.25390625 C-9.38623508 -0.27012163 -5.03618246 -0.06188126 0 0 Z " fill="#335D69" transform="translate(163.75,140.9375)"/>
<path d="M0 0 C0 1.98 0 3.96 0 6 C-0.99 4.68 -1.98 3.36 -3 2 C-5.47266765 2.34444881 -5.47266765 2.34444881 -8 3 C-8.33 3.66 -8.66 4.32 -9 5 C-9.66 5 -10.32 5 -11 5 C-11.09821045 5.60900146 -11.1964209 6.21800293 -11.29760742 6.84545898 C-12.15017748 9.46065912 -12.94630637 10.01974374 -15.23828125 11.47265625 C-16.22151367 12.10977539 -16.22151367 12.10977539 -17.22460938 12.75976562 C-18.25811523 13.40461914 -18.25811523 13.40461914 -19.3125 14.0625 C-20.66333121 14.92749468 -22.01360736 15.79335689 -23.36328125 16.66015625 C-23.99975586 17.06379395 -24.63623047 17.46743164 -25.29199219 17.88330078 C-26.66279283 18.77953322 -27.98379323 19.75171893 -29.28515625 20.74609375 C-31 22 -31 22 -34.125 23 C-37.28615876 23.77529656 -37.28615876 23.77529656 -39 27 C-37.92997023 18.43976184 -32.82075584 10.78059275 -26.1171875 5.5234375 C-17.75409847 -0.08475161 -9.79775767 -0.29393273 0 0 Z " fill="#94CC9C" transform="translate(196,49)"/>
<path d="M0 0 C4.78049347 1.53626444 8.11333048 4.24650825 11.9375 7.375 C15.36118738 10.14955922 18.74312081 12.88577398 22.44140625 15.2890625 C23.28574219 15.85367188 24.13007812 16.41828125 25 17 C25 17.33 25 17.66 25 18 C12.76312458 18.43020265 3.87256683 17.82289125 -5.875 9.375 C-7 8 -7 8 -7 6 C-6.21625 5.71125 -5.4325 5.4225 -4.625 5.125 C-1.90328368 4.15087746 -1.90328368 4.15087746 0 2 C0 1.67 0 1.34 0 1 C0 0.67 0 0.34 0 0 Z " fill="#374E64" transform="translate(58,136)"/>
<path d="M0 0 C1.67667436 0.64108137 3.34089996 1.31471955 5 2 C6.47894959 2.0328048 7.95822005 2.05255526 9.4375 2.0625 C12.50785235 2.33236513 13.62250102 2.59026515 15.73828125 4.88671875 C16.75303576 6.47309207 17.73089021 8.08363111 18.671875 9.71484375 C22.2208092 15.82109818 28.11547365 20.30118494 34.875 22.25 C35.90625 22.4975 36.9375 22.745 38 23 C35.54191528 24.57895795 34.32628668 25.03549766 31.37890625 24.71484375 C30.44949219 24.45832031 29.52007812 24.20179688 28.5625 23.9375 C27.17224609 23.57978516 27.17224609 23.57978516 25.75390625 23.21484375 C22.33335537 21.70591989 20.59659915 19.69415924 18 17 C15.12445215 14.64727903 12.15683353 12.42010032 9.1875 10.1875 C8.39923828 9.59001953 7.61097656 8.99253906 6.79882812 8.37695312 C4.86843905 6.91453716 2.93547516 5.45567384 1 4 C1.33 4.99 1.66 5.98 2 7 C0.68 7 -0.64 7 -2 7 C-3.93212692 7.62284938 -3.93212692 7.62284938 -5.75 8.5 C-6.8225 8.995 -7.895 9.49 -9 10 C-11 7 -11 7 -11 4 C-9.1128125 3.566875 -9.1128125 3.566875 -7.1875 3.125 C-4.1460601 2.42696461 -2.69330122 1.79553415 0 0 Z " fill="#989AAD" transform="translate(59,133)"/>
<path d="M0 0 C0.66 0 1.32 0 2 0 C2 0.66 2 1.32 2 2 C3.051875 1.835 4.10375 1.67 5.1875 1.5 C8.20468796 1.10430322 10.97093972 0.90821029 14 1 C13.10667666 6.16271278 9.82158726 9.59092623 6 13 C2.625 14.0625 2.625 14.0625 0 14 C-0.33 13.67 -0.66 13.34 -1 13 C-1.639375 13.350625 -2.27875 13.70125 -2.9375 14.0625 C-7.09223181 15.33435668 -10.78703237 14.97829211 -15 14 C-15.99 13.34 -16.98 12.68 -18 12 C-16.80503906 11.45472656 -16.80503906 11.45472656 -15.5859375 10.8984375 C-9.27464462 7.90402847 -4.6760091 5.16822058 0 0 Z " fill="#205867" transform="translate(154,111)"/>
<path d="M0 0 C0.33 0.99 0.66 1.98 1 3 C0.525625 3.928125 0.05125 4.85625 -0.4375 5.8125 C-3.33819239 12.1376209 -3.16410703 20.2402489 -1.1328125 26.80078125 C-0.17688785 28.93242343 0.87556163 30.95433502 2 33 C3.11002992 36.33008975 2.68516272 37.65983176 2 41 C2.33 41.66 2.66 42.32 3 43 C2.01 43 1.02 43 0 43 C-0.33 43.99 -0.66 44.98 -1 46 C-0.34 46.33 0.32 46.66 1 47 C0.34 47 -0.32 47 -1 47 C-1.33 47.99 -1.66 48.98 -2 50 C-7.3298434 44.44238552 -12.23632423 39.27433831 -15 32 C-15.35964844 31.08476563 -15.71929687 30.16953125 -16.08984375 29.2265625 C-17.12650619 25.5515274 -17.19691064 22.43626396 -17.125 18.625 C-17.10695312 17.37976563 -17.08890625 16.13453125 -17.0703125 14.8515625 C-17.04710937 13.91054687 -17.02390625 12.96953125 -17 12 C-16.34 12 -15.68 12 -15 12 C-14.67 10.35 -14.34 8.7 -14 7 C-13.01 8.485 -13.01 8.485 -12 10 C-12.495 10.70125 -12.99 11.4025 -13.5 12.125 C-15.20530412 15.39349956 -15.16126158 17.37161436 -15 21 C-15.33 21.66 -15.66 22.32 -16 23 C-15.01 23 -14.02 23 -13 23 C-13 24.98 -13 26.96 -13 29 C-12.34 29.33 -11.68 29.66 -11 30 C-10.65977214 31.99883869 -10.32670903 33.99890722 -10 36 C-8.04783565 37.95216435 -6.46800047 38.84826645 -4 40 C-2.5428666 37.65450274 -1.96667637 36.3866798 -2.20703125 33.59765625 C-2.40683594 32.76105469 -2.60664062 31.92445312 -2.8125 31.0625 C-3.00457031 30.22847656 -3.19664063 29.39445312 -3.39453125 28.53515625 C-3.59433594 27.69855469 -3.79414062 26.86195312 -4 26 C-4.90290294 21.91838395 -5.08213225 18.18874481 -5 14 C-5.66 13.67 -6.32 13.34 -7 13 C-6.401875 11.96875 -5.80375 10.9375 -5.1875 9.875 C-3.33606301 6.63992683 -1.63454714 3.35082164 0 0 Z " fill="#206A74" transform="translate(75,75)"/>
<path d="M0 0 C0.33 0 0.66 0 1 0 C1 3.3 1 6.6 1 10 C1.66 9.67 2.32 9.34 3 9 C4.00109515 12.31070838 4.10356134 15.30084769 4.0625 18.75 C4.05347656 19.73484375 4.04445312 20.7196875 4.03515625 21.734375 C4.02355469 22.48203125 4.01195312 23.2296875 4 24 C4.99 24.33 5.98 24.66 7 25 C7.66 23.68 8.32 22.36 9 21 C9 25.62 9 30.24 9 35 C7.02 35.495 7.02 35.495 5 36 C2.09472388 33.09472388 2.28735681 29.78900975 1.875 25.875 C1.78863281 25.12089844 1.70226562 24.36679688 1.61328125 23.58984375 C1.40110739 21.72742873 1.19954237 19.86381069 1 18 C-0.32 18 -1.64 18 -3 18 C-3 18.99 -3 19.98 -3 21 C-7.59474974 22.53158325 -10.32944353 22.95806287 -15 22 C-15.845625 22.309375 -16.69125 22.61875 -17.5625 22.9375 C-22.67060069 24.51636749 -27.69322452 24.15456628 -33 24 C-32 22 -32 22 -29.9296875 20.91015625 C-26.33093432 19.7921436 -22.86143417 19.58067178 -19.125 19.4375 C-14.01737862 19.21060189 -9.05319285 18.79821976 -4 18 C-3.896875 16.700625 -3.79375 15.40125 -3.6875 14.0625 C-3.151692 9.09839647 -1.75069775 4.65751666 0 0 Z " fill="#2B3950" transform="translate(101,139)"/>
<path d="M0 0 C3.25 0.0625 3.25 0.0625 7 1 C10.11308867 4.81353363 11.35973119 7.38418274 11 12.3125 C10 16 10 16 8.0625 17.3125 C7.381875 17.539375 6.70125 17.76625 6 18 C4.41642219 20.37536671 2.88406307 22.76505664 1.375 25.1875 C0.92898437 25.90292969 0.48296875 26.61835937 0.0234375 27.35546875 C-0.31429687 27.89816406 -0.65203125 28.44085938 -1 29 C-1.99 28.34 -2.98 27.68 -4 27 C-7.1628485 27.80404463 -7.1628485 27.80404463 -10 29 C-9.23302204 27.58124235 -8.46123222 26.16508548 -7.6875 24.75 C-7.04361328 23.56664062 -7.04361328 23.56664062 -6.38671875 22.359375 C-5.05022446 20.08545233 -3.71523708 18.00494201 -2 16 C-1.34 16 -0.68 16 0 16 C0 15.34 0 14.68 0 14 C0.99 14 1.98 14 3 14 C2.88512252 12.41590006 2.75765492 10.83271037 2.625 9.25 C2.55539063 8.36828125 2.48578125 7.4865625 2.4140625 6.578125 C2.00149945 4.00933618 1.28839043 2.24158985 0 0 Z " fill="#96CF9A" transform="translate(146,40)"/>
<path d="M0 0 C1.27746094 -0.02835938 2.55492187 -0.05671875 3.87109375 -0.0859375 C8.31495091 0.46895683 10.09283651 1.66147646 13.5625 4.375 C11.8125 9.25 11.8125 9.25 9.5625 10.375 C9.5625 9.715 9.5625 9.055 9.5625 8.375 C8.5725 8.375 7.5825 8.375 6.5625 8.375 C6.5625 7.715 6.5625 7.055 6.5625 6.375 C-3.89369514 6.65383187 -12.5110774 7.4240516 -21.4375 13.375 C-24.125 13 -24.125 13 -26.4375 12.375 C-18.25563768 5.51279289 -10.94609818 0.11023261 0 0 Z " fill="#A8D5D7" transform="translate(164.4375,134.625)"/>
<path d="M0 0 C0.66 0 1.32 0 2 0 C2.309375 1.134375 2.61875 2.26875 2.9375 3.4375 C3.62924531 6.78775099 3.62924531 6.78775099 5 8 C7.33297433 8.04092937 9.66705225 8.04241723 12 8 C11.67 5.69 11.34 3.38 11 1 C11.66 1 12.32 1 13 1 C14.43304064 3.86608129 14.30644155 5.81300783 14 9 C11.85369892 12.98598773 10.21306975 15.34214945 6 17 C0.92670341 17.71997278 -2.9686992 17.5246969 -7.5625 15.1875 C-10 13 -10 13 -11 10 C-9.5625 7.3125 -9.5625 7.3125 -8 5 C-7.34 5.33 -6.68 5.66 -6 6 C-6.33 7.32 -6.66 8.64 -7 10 C-5.35 9.67 -3.7 9.34 -2 9 C-1.855625 7.700625 -1.71125 6.40125 -1.5625 5.0625 C-1.125 1.125 -1.125 1.125 0 0 Z " fill="#EFF2F4" transform="translate(133,171)"/>
<path d="M0 0 C2 3 2 3 1.75 6.625 C1.5025 7.73875 1.255 8.8525 1 10 C0.01 10.495 0.01 10.495 -1 11 C-0.67 9.35 -0.34 7.7 0 6 C-2.44480079 6.18828772 -2.44480079 6.18828772 -5 7 C-6.36020151 8.96758273 -6.36020151 8.96758273 -7 11 C-8.32 11 -9.64 11 -11 11 C-12.04625409 9.70264493 -13.04701223 8.36733028 -14 7 C-14.99 6.67 -15.98 6.34 -17 6 C-16.01 8.31 -15.02 10.62 -14 13 C-17.875 11.25 -17.875 11.25 -19 9 C-19.45737794 3.62580918 -19.45737794 3.62580918 -17.76953125 1.31640625 C-15.4925023 -0.37754244 -14.239493 -0.28194854 -11.4375 -0.125 C-7.12581789 0.08739813 -4.26027209 -1.27808163 0 0 Z " fill="#5DB29B" transform="translate(114,89)"/>
<path d="M0 0 C0.99 0.33 1.98 0.66 3 1 C2.03739986 7.4652248 0.58547143 11.29385826 -4 16 C-4.66 14.68 -5.32 13.36 -6 12 C-6.99 12 -7.98 12 -9 12 C-9.66 11.34 -10.32 10.68 -11 10 C-13.9719385 11.12451727 -16.33440687 12.22293791 -19 14 C-19.33 13.34 -19.66 12.68 -20 12 C-17.11959164 5.54788527 -17.11959164 5.54788527 -13.0625 3.5625 C-10 3 -10 3 -7.4375 3.0625 C-4.28796901 2.9817428 -2.65535287 1.60718726 0 0 Z " fill="#48B590" transform="translate(146,78)"/>
<path d="M0 0 C1.93006955 5.36560885 -1.03857613 9.75256729 -3.1875 14.6875 C-3.58775391 15.66267578 -3.98800781 16.63785156 -4.40039062 17.64257812 C-4.79806641 18.56876953 -5.19574219 19.49496094 -5.60546875 20.44921875 C-6.14917114 21.72285278 -6.14917114 21.72285278 -6.70385742 23.0222168 C-8 25 -8 25 -10.0246582 25.59692383 C-10.676521 25.72993896 -11.32838379 25.8629541 -12 26 C-12.66 26.99 -13.32 27.98 -14 29 C-14 28.34 -14 27.68 -14 27 C-15.32 27.33 -16.64 27.66 -18 28 C-16.6077541 23.37324343 -14.70479016 19.35313769 -12.375 15.125 C-11.74335937 13.97257812 -11.11171875 12.82015625 -10.4609375 11.6328125 C-9.97882813 10.76398438 -9.49671875 9.89515625 -9 9 C-7.68 9.66 -6.36 10.32 -5 11 C-3.26571391 7.68223532 -1.81233674 4.65551535 -1 1 C-0.67 0.67 -0.34 0.34 0 0 Z " fill="#1E7174" transform="translate(139,100)"/>
<path d="M0 0 C0 0.66 0 1.32 0 2 C0.99 2.33 1.98 2.66 3 3 C1.5839401 3.79275148 0.16712447 4.58415312 -1.25 5.375 C-2.03890625 5.81585938 -2.8278125 6.25671875 -3.640625 6.7109375 C-5.13082774 7.52512112 -6.64003938 8.30620589 -8.171875 9.0390625 C-11.75652686 10.92330258 -12.65337743 13.34488161 -14 17 C-16.33333333 17 -18.66666667 17 -21 17 C-20.32769974 11.28544782 -17.30830904 6.7352323 -13 3 C-10.87890625 2.05078125 -10.87890625 2.05078125 -8.5625 1.3125 C-7.80066406 1.06113281 -7.03882812 0.80976562 -6.25390625 0.55078125 C-4 0 -4 0 0 0 Z " fill="#47B191" transform="translate(99,75)"/>
<path d="M0 0 C0.69738281 0.00451172 1.39476562 0.00902344 2.11328125 0.01367188 C3.82555803 0.0253998 5.53779033 0.04333347 7.25 0.0625 C7.25 0.7225 7.25 1.3825 7.25 2.0625 C8.24 2.0625 9.23 2.0625 10.25 2.0625 C10.1875 3.8125 10.1875 3.8125 9.25 6.0625 C5.37890291 9.27468695 5.37890291 9.27468695 2.25 10.0625 C-1.27670594 9.51401521 -4.45513728 8.4149185 -7.75 7.0625 C-7.75 6.4025 -7.75 5.7425 -7.75 5.0625 C-8.74 4.7325 -9.73 4.4025 -10.75 4.0625 C-10.42 3.4025 -10.09 2.7425 -9.75 2.0625 C-10.41 1.7325 -11.07 1.4025 -11.75 1.0625 C-7.88276369 -0.20332219 -4.01848738 -0.0493765 0 0 Z " fill="#387C84" transform="translate(163.75,140.9375)"/>
<path d="M0 0 C1.32 0.66 2.64 1.32 4 2 C3.01 4.97 2.02 7.94 1 11 C-3.455 11.495 -3.455 11.495 -8 12 C-8.33 11.34 -8.66 10.68 -9 10 C-9.66 10 -10.32 10 -11 10 C-11 10.66 -11 11.32 -11 12 C-13.64 11.67 -16.28 11.34 -19 11 C-18.01 10.67 -17.02 10.34 -16 10 C-16 9.01 -16 8.02 -16 7 C-16.99 6.67 -17.98 6.34 -19 6 C-17.56260487 5.97287934 -16.12506137 5.95354933 -14.6875 5.9375 C-13.48673828 5.92009766 -13.48673828 5.92009766 -12.26171875 5.90234375 C-10 6 -10 6 -7 7 C-6.67 5.68 -6.34 4.36 -6 3 C-5.34 3 -4.68 3 -4 3 C-3.67 2.34 -3.34 1.68 -3 1 C-2.01 0.67 -1.02 0.34 0 0 Z " fill="#85C29A" transform="translate(142,66)"/>
<path d="M0 0 C0 2.64 0 5.28 0 8 C-1.051875 8.1546875 -1.051875 8.1546875 -2.125 8.3125 C-8.22926754 9.77221615 -15.54141345 13.54141345 -20 18 C-23.125 18.125 -23.125 18.125 -26 18 C-22.53443173 14.1224411 -17.97295473 11.69510803 -13.6171875 8.9375 C-10.74802137 7.20127686 -10.74802137 7.20127686 -10 4 C-9.34 4 -8.68 4 -8 4 C-7.67 3.01 -7.34 2.02 -7 1 C-4.53721199 -0.231394 -2.7204945 -0.07159196 0 0 Z " fill="#6BBA8B" transform="translate(195,50)"/>
<path d="M0 0 C2.88575819 0.39803561 3.82189513 0.79009069 5.75 3.0625 C6.1625 3.701875 6.575 4.34125 7 5 C9.23775292 3.99686938 10.8507388 3.15523165 12.5625 1.375 C14 0 14 0 17 0 C16.34 3.3 15.68 6.6 15 10 C14.01 10.33 13.02 10.66 12 11 C10.33289654 12.49985609 10.33289654 12.49985609 9 14 C5.41292671 10.61220856 2.50310461 7.26454859 0 3 C0 2.01 0 1.02 0 0 Z " fill="#E2F5F5" transform="translate(97,95)"/>
<path d="M0 0 C1.67667436 0.64108137 3.34089996 1.31471955 5 2 C7.98909878 2.46720367 10.98558767 2.75044081 14 3 C14.66 4.65 15.32 6.3 16 8 C15.34 8.66 14.68 9.32 14 10 C12.948125 9.360625 11.89625 8.72125 10.8125 8.0625 C7.89171588 6.38245548 5.3828257 5.41003948 2 5 C2 5.33 2 5.66 2 6 C1.484375 6.103125 0.96875 6.20625 0.4375 6.3125 C-2.86026435 7.24263866 -5.86633332 8.61395512 -9 10 C-11 7 -11 7 -11 4 C-9.1128125 3.566875 -9.1128125 3.566875 -7.1875 3.125 C-4.1460601 2.42696461 -2.69330122 1.79553415 0 0 Z " fill="#ABBFCA" transform="translate(59,133)"/>
<path d="M0 0 C0 0.66 0 1.32 0 2 C1.051875 1.835 2.10375 1.67 3.1875 1.5 C6.20468796 1.10430322 8.97093972 0.90821029 12 1 C11.46104623 4.7726764 10.00464642 6.68212991 7 9 C4.875 8.625 4.875 8.625 3 8 C2.34 8.66 1.68 9.32 1 10 C0.01 9.67 -0.98 9.34 -2 9 C-2 8.34 -2 7.68 -2 7 C-3.65 7.33 -5.3 7.66 -7 8 C-7 5 -7 5 -4.625 2.3125 C-2 0 -2 0 0 0 Z " fill="#1E737B" transform="translate(156,111)"/>
<path d="M0 0 C0.375 2.6875 0.375 2.6875 0 6 C-2.69737498 9.18151921 -4.24226622 10.77420981 -8.40234375 11.30859375 C-10.62463931 11.31210449 -12.78952084 11.22104792 -15 11 C-14.23439544 9.7260098 -13.46227374 8.45593488 -12.6875 7.1875 C-12.25824219 6.47980469 -11.82898438 5.77210937 -11.38671875 5.04296875 C-7.99594345 0.04754485 -6.13363094 -0.34718666 0 0 Z " fill="#327E7E" transform="translate(182,120)"/>
<path d="M0 0 C0.33 0.66 0.66 1.32 1 2 C-0.21484375 4.8203125 -0.21484375 4.8203125 -1.9375 8.125 C-2.50339844 9.22070312 -3.06929687 10.31640625 -3.65234375 11.4453125 C-4.09707031 12.28835937 -4.54179688 13.13140625 -5 14 C-5.66 14 -6.32 14 -7 14 C-7.99 15.98 -8.98 17.96 -10 20 C-12.475 19.01 -12.475 19.01 -15 18 C-14.814375 17.38125 -14.62875 16.7625 -14.4375 16.125 C-13.76313824 13.95839822 -13.76313824 13.95839822 -15 12 C-14.01 11.67 -13.02 11.34 -12 11 C-10.76722873 9.13977928 -10.76722873 9.13977928 -9.8125 6.9375 C-9.46832031 6.20402344 -9.12414062 5.47054687 -8.76953125 4.71484375 C-8.51558594 4.14894531 -8.26164062 3.58304687 -8 3 C-6.35 3.33 -4.7 3.66 -3 4 C-2.01 2.68 -1.02 1.36 0 0 Z " fill="#21465A" transform="translate(120,113)"/>
<path d="M0 0 C0.99 0 1.98 0 3 0 C2.69320312 0.56847656 2.38640625 1.13695313 2.0703125 1.72265625 C-0.28069348 6.7249792 -1.35579805 12.4851303 -1 18 C-3.8125 18.625 -3.8125 18.625 -7 19 C-7.99 18.34 -8.98 17.68 -10 17 C-10.40843923 14.28796348 -10.13336867 11.7562858 -10 9 C-9.01 9 -8.02 9 -7 9 C-6.67 8.01 -6.34 7.02 -6 6 C-6 6.66 -6 7.32 -6 8 C-5.01 7.67 -4.02 7.34 -3 7 C-2.814375 5.7934375 -2.814375 5.7934375 -2.625 4.5625 C-2.41875 3.716875 -2.2125 2.87125 -2 2 C-1.34 1.67 -0.68 1.34 0 1 C0 0.67 0 0.34 0 0 Z " fill="#27958B" transform="translate(88,83)"/>
<path d="M0 0 C0.66 1.32 1.32 2.64 2 4 C4.16874252 3.49396008 5.99967627 3.00016187 8 2 C9.33755177 2.31598127 10.66992132 2.6539081 12 3 C14.24707241 3.2198223 16.49771238 3.40483987 18.75 3.5625 C19.92046875 3.64628906 21.0909375 3.73007813 22.296875 3.81640625 C23.18890625 3.87699219 24.0809375 3.93757813 25 4 C24.01 4.495 24.01 4.495 23 5 C22.67 5.66 22.34 6.32 22 7 C19.69 6.34 17.38 5.68 15 5 C15 5.66 15 6.32 15 7 C15.639375 7.103125 16.27875 7.20625 16.9375 7.3125 C17.618125 7.539375 18.29875 7.76625 19 8 C19.33 8.99 19.66 9.98 20 11 C14.85404946 10.42381249 10.44921945 9.25256722 5.5625 7.4375 C4.32628906 6.98246094 3.09007812 6.52742188 1.81640625 6.05859375 C0.42228516 5.53458984 0.42228516 5.53458984 -1 5 C-0.67 3.35 -0.34 1.7 0 0 Z M19 6 C21 7 21 7 21 7 Z " fill="#DDF5F1" transform="translate(152,74)"/>
<path d="M0 0 C-1.95649838 7.01078585 -5.86400547 11.00667198 -11 16 C-11.99 15.01 -12.98 14.02 -14 13 C-10.65771297 4.00153492 -10.65771297 4.00153492 -6 1.1875 C-3 0 -3 0 0 0 Z " fill="#1E8984" transform="translate(127,103)"/>
<path d="M0 0 C0.99 0 1.98 0 3 0 C-1.99748513 5.1289979 -5.94508705 5.86643022 -13 6 C-15.83967231 6 -18.23735711 5.59732819 -21 5 C-21 3.35 -21 1.7 -21 0 C-13.54344392 -0.12638231 -13.54344392 -0.12638231 -10.3125 0.625 C-6.10207916 1.30777095 -4.24438661 -1.41479554 0 0 Z " fill="#20475B" transform="translate(156,124)"/>
<path d="M0 0 C0.33 0.99 0.66 1.98 1 3 C-2.05744488 9.11488976 -6.93664805 12.60990591 -13.375 14.8125 C-17.58287538 15.11306253 -21.78383034 15.07368063 -26 15 C-26 14.67 -26 14.34 -26 14 C-24.35 14 -22.7 14 -21 14 C-21.7763932 10.9254644 -21.7763932 10.9254644 -24 9 C-22.2709226 8.97274659 -20.54171824 8.95349013 -18.8125 8.9375 C-17.84957031 8.92589844 -16.88664063 8.91429687 -15.89453125 8.90234375 C-13 9 -13 9 -10.30859375 9.64453125 C-9.54675781 9.76183594 -8.78492188 9.87914062 -8 10 C-4.91382062 7.47494414 -3.26710868 5.80132605 -2 2 C-1.34 2 -0.68 2 0 2 C0 1.34 0 0.68 0 0 Z " fill="#1F2C41" transform="translate(152,179)"/>
<path d="M0 0 C1.29858939 0.56775536 2.58870441 1.15491663 3.875 1.75 C4.95394531 2.23726562 4.95394531 2.23726562 6.0546875 2.734375 C8.3370674 4.21929686 9.00375898 5.50415408 10 8 C7.66836622 8.67258667 5.3347961 9.33847444 3 10 C2.29875 10.309375 1.5975 10.61875 0.875 10.9375 C-1 11 -1 11 -3.75 8.6875 C-6 6 -6 6 -6 4 C-4.7934375 3.566875 -4.7934375 3.566875 -3.5625 3.125 C-0.8673532 2.26737432 -0.8673532 2.26737432 0 0 Z " fill="#4F687B" transform="translate(57,138)"/>
<path d="M0 0 C2.375 2.625 2.375 2.625 4 5 C2.37536158 5.05395478 0.75021459 5.09277195 -0.875 5.125 C-2.23238281 5.15980469 -2.23238281 5.15980469 -3.6171875 5.1953125 C-6 5 -6 5 -8 3 C-8.99 3.66 -9.98 4.32 -11 5 C-13.34923778 5.36268934 -15.66781915 5.50277147 -18.0390625 5.65625 C-19.00972656 5.82640625 -19.00972656 5.82640625 -20 6 C-20.33 6.66 -20.66 7.32 -21 8 C-21.33 6.02 -21.66 4.04 -22 2 C-21.113125 2.226875 -20.22625 2.45375 -19.3125 2.6875 C-15.32263744 3.06390213 -14.22621582 2.23353403 -11 0 C-6.68314828 -2.32445862 -4.41705115 -2.16153567 0 0 Z " fill="#B9CFD6" transform="translate(68,131)"/>
<path d="M0 0 C0.99 0 1.98 0 3 0 C2.40546697 10.55808656 2.40546697 10.55808656 -1 15 C-1.99 14.34 -2.98 13.68 -4 13 C-7.1628485 13.80404463 -7.1628485 13.80404463 -10 15 C-9.23302204 13.58124235 -8.46123222 12.16508548 -7.6875 10.75 C-7.04361328 9.56664062 -7.04361328 9.56664062 -6.38671875 8.359375 C-5.05022446 6.08545233 -3.71523708 4.00494201 -2 2 C-1.34 2 -0.68 2 0 2 C0 1.34 0 0.68 0 0 Z " fill="#DAEBC6" transform="translate(146,54)"/>
<path d="M0 0 C1.23435632 3.70306896 0.61556372 4.58229419 -0.87109375 8.10546875 C-1.48500977 9.57983398 -1.48500977 9.57983398 -2.11132812 11.08398438 C-2.54896484 12.10814453 -2.98660156 13.13230469 -3.4375 14.1875 C-4.0881543 15.74114258 -4.0881543 15.74114258 -4.75195312 17.32617188 C-5.8261898 19.88781318 -6.90914768 22.44540034 -8 25 C-9.33333333 25 -10.66666667 25 -12 25 C-11.88617347 23.04098546 -11.75858875 21.0827662 -11.625 19.125 C-11.55539063 18.03445312 -11.48578125 16.94390625 -11.4140625 15.8203125 C-11 13 -11 13 -9 11 C-8.67 11.33 -8.34 11.66 -8 12 C-7.34 11.34 -6.68 10.68 -6 10 C-5.34 10.33 -4.68 10.66 -4 11 C-3.8453125 10.2265625 -3.8453125 10.2265625 -3.6875 9.4375 C-2.75736134 6.13973565 -1.38604488 3.13366668 0 0 Z " fill="#20334A" transform="translate(113,125)"/>
<path d="M0 0 C0.33 0.66 0.66 1.32 1 2 C-3.08043978 7.22147461 -6.3744965 11.23319907 -13 13 C-16.6828888 13.21429529 -20.31653092 13.17984388 -24 13 C-24 12.67 -24 12.34 -24 12 C-22.35 12 -20.7 12 -19 12 C-18.67 11.01 -18.34 10.02 -18 9 C-16.328125 8.12109375 -16.328125 8.12109375 -14.25 7.4375 C-13.53070313 7.19 -12.81140625 6.9425 -12.0703125 6.6875 C-11.38710937 6.460625 -10.70390625 6.23375 -10 6 C-6.12464531 4.58898781 -6.12464531 4.58898781 -3 2 C-2.01 1.34 -1.02 0.68 0 0 Z " fill="#2D9079" transform="translate(190,65)"/>
<path d="M0 0 C0.96164063 0.05542969 1.92328125 0.11085937 2.9140625 0.16796875 C5.375 0.8125 5.375 0.8125 6.7109375 2.86328125 C6.93007812 3.50652344 7.14921875 4.14976562 7.375 4.8125 C6.055 6.1325 4.735 7.4525 3.375 8.8125 C3.375 8.1525 3.375 7.4925 3.375 6.8125 C2.385 6.8125 1.395 6.8125 0.375 6.8125 C0.375 6.1525 0.375 5.4925 0.375 4.8125 C-3.255 4.8125 -6.885 4.8125 -10.625 4.8125 C-10.295 3.4925 -9.965 2.1725 -9.625 0.8125 C-6.30288217 -0.21877355 -3.46021031 -0.24715788 0 0 Z " fill="#A9DBD7" transform="translate(170.625,136.1875)"/>
<path d="M0 0 C0.33 0 0.66 0 1 0 C1.22084624 6.09781001 1.01167675 11.21642935 -1 17 C-1.33 16.01 -1.66 15.02 -2 14 C-2.94875 14.495 -3.8975 14.99 -4.875 15.5 C-8 17 -8 17 -10 17 C-8.76529775 12.06119102 -6.53379832 8.75658938 -3.4375 4.83203125 C-2.2172975 3.27693622 -1.09645789 1.64468684 0 0 Z " fill="#83C597" transform="translate(156,51)"/>
<path d="M0 0 C0.33 0.66 0.66 1.32 1 2 C1.99 2 2.98 2 4 2 C5.98937234 6.030321 6.07167896 8.44725815 5.125 12.8125 C4.81949219 14.27623047 4.81949219 14.27623047 4.5078125 15.76953125 C4.25644531 16.87361328 4.25644531 16.87361328 4 18 C1.525 17.01 1.525 17.01 -1 16 C-1.02712153 14.083412 -1.04645097 12.1667127 -1.0625 10.25 C-1.07410156 9.18265625 -1.08570312 8.1153125 -1.09765625 7.015625 C-1.01510087 4.46631499 -0.74617558 2.42066409 0 0 Z " fill="#A29EB8" transform="translate(105,148)"/>
<path d="M0 0 C0 0.99 0 1.98 0 3 C-4.290978 4.69643316 -6.56530385 4.88693923 -11 4 C-11.845625 4.309375 -12.69125 4.61875 -13.5625 4.9375 C-18.67060069 6.51636749 -23.69322452 6.15456628 -29 6 C-28 4 -28 4 -25.9453125 2.91015625 C-22.26407135 1.77258438 -18.69570129 1.58016735 -14.875 1.4375 C-9.80254563 1.2227204 -4.99618023 0 0 0 Z " fill="#65697E" transform="translate(97,157)"/>
<path d="M0 0 C1.59343619 0.230163 3.1763114 0.53512051 4.75 0.875 C6.04164063 1.14957031 6.04164063 1.14957031 7.359375 1.4296875 C8.23078125 1.61789063 9.1021875 1.80609375 10 2 C11.66613348 2.33598824 13.33264489 2.67012759 15 3 C14.67 4.65 14.34 6.3 14 8 C9.96479403 6.41037341 5.98188718 4.71767682 2 3 C2.99 4.485 2.99 4.485 4 6 C3.7578125 8.91796875 3.7578125 8.91796875 3.125 12.1875 C2.92132813 13.27417969 2.71765625 14.36085938 2.5078125 15.48046875 C2.34023437 16.31191406 2.17265625 17.14335938 2 18 C1.67 18 1.34 18 1 18 C0.93941406 17.19175781 0.87882813 16.38351563 0.81640625 15.55078125 C0.73261719 14.48214844 0.64882812 13.41351563 0.5625 12.3125 C0.48128906 11.25675781 0.40007812 10.20101562 0.31640625 9.11328125 C0.05891798 6.03038426 0.05891798 6.03038426 -0.59765625 3.16796875 C-0.73042969 2.45253906 -0.86320313 1.73710938 -1 1 C-0.67 0.67 -0.34 0.34 0 0 Z " fill="#4AAD92" transform="translate(158,82)"/>
<path d="M0 0 C0.66 0.33 1.32 0.66 2 1 C0.62093985 4.32388856 -0.72868981 5.79712016 -3.8125 7.625 C-4.52277344 8.05039062 -5.23304688 8.47578125 -5.96484375 8.9140625 C-8 10 -8 10 -10.875 11 C-13.26753331 11.85817511 -13.26753331 11.85817511 -14.3125 14.625 C-14.6528125 15.800625 -14.6528125 15.800625 -15 17 C-15.99 16.67 -16.98 16.34 -18 16 C-14.9496753 8.79014163 -9.75873382 4.54904223 -3 1 C-2.01 0.67 -1.02 0.34 0 0 Z " fill="#B2D7AF" transform="translate(179,50)"/>
<path d="M0 0 C0.33 0.66 0.66 1.32 1 2 C2.32 2 3.64 2 5 2 C4.34 6.29 3.68 10.58 3 15 C2.01 15 1.02 15 0 15 C0 14.34 0 13.68 0 13 C-0.99 13 -1.98 13 -3 13 C-2.52060632 8.28596212 -2.03165952 4.33420699 0 0 Z " fill="#B0B5C7" transform="translate(109,137)"/>
<path d="M0 0 C-3 2 -3 2 -5 2 C-5 2.66 -5 3.32 -5 4 C-3.35 4 -1.7 4 0 4 C0.66 5.32 1.32 6.64 2 8 C2.66 7.01 3.32 6.02 4 5 C4.99 5 5.98 5 7 5 C5.52307692 9.67692308 5.52307692 9.67692308 2.875 11.3125 C1.946875 11.6528125 1.946875 11.6528125 1 12 C0.1028125 10.7934375 0.1028125 10.7934375 -0.8125 9.5625 C-2.80947276 6.77672016 -2.80947276 6.77672016 -6 6 C-5.01 8.31 -4.02 10.62 -3 13 C-6.875 11.25 -6.875 11.25 -8 9 C-8.45014808 3.71076012 -8.45014808 3.71076012 -6.8125 1.125 C-4.43963721 -0.34781139 -2.74086056 -0.22223194 0 0 Z " fill="#4C9B8E" transform="translate(103,89)"/>
<path d="M0 0 C2.625 0.375 2.625 0.375 5 1 C4.8125 2.875 4.8125 2.875 4 5 C2.33927151 5.68132451 0.672233 6.34742127 -1 7 C-2.76394209 9.60391451 -3 10.80780296 -3 14 C-3.99 14.495 -3.99 14.495 -5 15 C-5.72693904 16.97888961 -6.39816251 18.97954558 -7 21 C-7.66 21 -8.32 21 -9 21 C-8.6610428 13.54294158 -5.30270738 5.30270738 0 0 Z " fill="#5CB391" transform="translate(67,66)"/>
<path d="M0 0 C0.33 0 0.66 0 1 0 C1.33 1.65 1.66 3.3 2 5 C2.99 5.33 3.98 5.66 5 6 C5.66 4.68 6.32 3.36 7 2 C7 6.62 7 11.24 7 16 C5.68 16.33 4.36 16.66 3 17 C-0.50270401 13.49729599 -0.05580639 9.41988475 -0.0625 4.6875 C-0.04653226 3.1249427 -0.02730408 1.56240032 0 0 Z " fill="#716F8A" transform="translate(103,158)"/>
<path d="M0 0 C0 0.66 0 1.32 0 2 C0.99 2 1.98 2 3 2 C2.67 3.32 2.34 4.64 2 6 C-1.61233001 7.27847309 -4.04606751 6.71332411 -7.6875 5.6875 C-9.14736328 5.29111328 -9.14736328 5.29111328 -10.63671875 4.88671875 C-13 4 -13 4 -14 2 C-11.75135208 0.87567604 -10.05612337 0.69546104 -7.5625 0.4375 C-6.78003906 0.35371094 -5.99757812 0.26992187 -5.19140625 0.18359375 C-3 0 -3 0 0 0 Z " fill="#67ACA9" transform="translate(171,141)"/>
<path d="M0 0 C1.32 0.33 2.64 0.66 4 1 C3.39288519 5.12838068 2.12477683 8.40422382 0 12 C-0.99 12.33 -1.98 12.66 -3 13 C-3 12.34 -3 11.68 -3 11 C-4.32 11.33 -5.64 11.66 -7 12 C-5.44298069 7.32894208 -2.91552627 3.91294315 0 0 Z " fill="#88C7C2" transform="translate(124,110)"/>
<path d="M0 0 C3.7952131 1.49097658 5.61042731 3.75700849 8 7 C6.02 7.99 4.04 8.98 2 10 C2 10.66 2 11.32 2 12 C0.68 12.33 -0.64 12.66 -2 13 C-2.66 10.69 -3.32 8.38 -4 6 C-3.01 6 -2.02 6 -1 6 C-1 5.01 -1 4.02 -1 3 C-0.67 2.01 -0.34 1.02 0 0 Z " fill="#20616E" transform="translate(77,111)"/>
<path d="M0 0 C0.99 0.33 1.98 0.66 3 1 C2.25 6.75 2.25 6.75 0 9 C-0.99 9.33 -1.98 9.66 -3 10 C-3.99 11.485 -3.99 11.485 -5 13 C-5 12.34 -5 11.68 -5 11 C-6.32 11.33 -7.64 11.66 -9 12 C-7.04225352 5.22318527 -7.04225352 5.22318527 -4 3 C-1.8125 2.3125 -1.8125 2.3125 0 2 C0 1.34 0 0.68 0 0 Z " fill="#245866" transform="translate(130,116)"/>
<path d="M0 0 C0.66 0.66 1.32 1.32 2 2 C4.23035297 2.27741245 4.23035297 2.27741245 6.7890625 2.1953125 C8.20058594 2.18564453 8.20058594 2.18564453 9.640625 2.17578125 C10.62546875 2.15902344 11.6103125 2.14226562 12.625 2.125 C13.61757812 2.11597656 14.61015625 2.10695313 15.6328125 2.09765625 C18.08878134 2.07404116 20.54427168 2.04110799 23 2 C23 2.33 23 2.66 23 3 C21.02966797 3.09087891 21.02966797 3.09087891 19.01953125 3.18359375 C17.28384459 3.26803256 15.54816802 3.35267888 13.8125 3.4375 C12.51602539 3.49647461 12.51602539 3.49647461 11.19335938 3.55664062 C7.74467358 3.72841425 4.46247484 3.90552917 1.07421875 4.59765625 C-1 5 -1 5 -4 4 C-4 3.34 -4 2.68 -4 2 C-4.79664062 2.34224609 -4.79664062 2.34224609 -5.609375 2.69140625 C-6.31578125 2.97886719 -7.0221875 3.26632813 -7.75 3.5625 C-8.44609375 3.85253906 -9.1421875 4.14257812 -9.859375 4.44140625 C-12.30012784 5.07831803 -13.6403655 4.80248831 -16 4 C-10.72530259 0.40871666 -6.43248729 -1.12666783 0 0 Z " fill="#6EB993" transform="translate(103,73)"/>
<path d="M0 0 C2.0625 2.25 2.0625 2.25 4 5 C3.75 7.125 3.75 7.125 3 9 C3 9.99 3 10.98 3 12 C2.401875 11.835 1.80375 11.67 1.1875 11.5 C-1.11344336 10.8885876 -1.11344336 10.8885876 -4 11 C-5.75 8.6875 -5.75 8.6875 -7 6 C-6.67 5.01 -6.34 4.02 -6 3 C-5.67 3.66 -5.34 4.32 -5 5 C-4.34 5 -3.68 5 -3 5 C-2.34 4.34 -1.68 3.68 -1 3 C-0.67 3.33 -0.34 3.66 0 4 C0 2.68 0 1.36 0 0 Z " fill="#20777B" transform="translate(86,96)"/>
<path d="M0 0 C0.66 0.66 1.32 1.32 2 2 C0.78896139 5.63311582 -0.27773234 8.27773234 -3 11 C-5 11 -7 11 -9 11 C-8.43804235 7.06629643 -7.44407389 4.16824393 -5 1 C-3.68 1 -2.36 1 -1 1 C-0.67 0.67 -0.34 0.34 0 0 Z " fill="#2BA592" transform="translate(87,81)"/>
<path d="M0 0 C0.8971875 0.5259375 0.8971875 0.5259375 1.8125 1.0625 C1.1875 3.9375 1.1875 3.9375 -0.1875 7.0625 C-3.3125 8.4375 -3.3125 8.4375 -6.1875 9.0625 C-6.1875 8.4025 -6.1875 7.7425 -6.1875 7.0625 C-7.1775 6.7325 -8.1675 6.4025 -9.1875 6.0625 C-8.8575 4.7425 -8.5275 3.4225 -8.1875 2.0625 C-7.5275 2.0625 -6.8675 2.0625 -6.1875 2.0625 C-5.8575 1.4025 -5.5275 0.7425 -5.1875 0.0625 C-2.1875 -0.9375 -2.1875 -0.9375 0 0 Z " fill="#9CD3A0" transform="translate(144.1875,66.9375)"/>
<path d="M0 0 C0.99 0.66 1.98 1.32 3 2 C1.205625 2.4021875 1.205625 2.4021875 -0.625 2.8125 C-3.53397725 3.51167523 -5.36100486 4.21058617 -8 5.75 C-12.31078999 7.5461625 -14.62761916 6.43233165 -19 5 C-16.06136151 3.50014063 -13.09717033 2.10772909 -10.0625 0.8125 C-9.22847656 0.44769531 -8.39445313 0.08289063 -7.53515625 -0.29296875 C-4.56508864 -1.12129269 -2.92485075 -0.91070312 0 0 Z " fill="#476A77" transform="translate(141,148)"/>
<path d="M0 0 C1.01416992 -0.01160156 1.01416992 -0.01160156 2.04882812 -0.0234375 C7.0590035 -0.0034965 7.0590035 -0.0034965 9.3125 2.25 C8.70921875 2.23839844 8.1059375 2.22679687 7.484375 2.21484375 C6.68515625 2.20582031 5.8859375 2.19679687 5.0625 2.1875 C4.27359375 2.17589844 3.4846875 2.16429687 2.671875 2.15234375 C0.40558998 2.24614694 -1.5163895 2.61758937 -3.6875 3.25 C-2.3675 3.91 -1.0475 4.57 0.3125 5.25 C-2.9875 5.58 -6.2875 5.91 -9.6875 6.25 C-9.3575 5.59 -9.0275 4.93 -8.6875 4.25 C-10.0075 4.58 -11.3275 4.91 -12.6875 5.25 C-12.6875 4.26 -12.6875 3.27 -12.6875 2.25 C-8.38615935 0.15340843 -4.75362125 -0.01862339 0 0 Z " fill="#BAE0DE" transform="translate(164.6875,134.75)"/>
<path d="M0 0 C0 0.66 0 1.32 0 2 C0.66 2.33 1.32 2.66 2 3 C2 3.66 2 4.32 2 5 C3.093125 5.12375 4.18625 5.2475 5.3125 5.375 C9 6 9 6 12 8 C8.61311564 9.12896145 6.97466041 8.86647201 3.5 8.25 C2.06140625 8.01023438 2.06140625 8.01023438 0.59375 7.765625 C-2.20497592 6.93949506 -3.12573904 6.15757948 -5 4 C-5.99 3.34 -6.98 2.68 -8 2 C-4.91190305 0.23537317 -3.76687864 0 0 0 Z " fill="#2C6A77" transform="translate(154,143)"/>
<path d="M0 0 C2.3125 -0.25 2.3125 -0.25 5 0 C7.40311451 2.23738248 7.96341425 3.46340904 8.1875 6.75 C8.125625 7.4925 8.06375 8.235 8 9 C5.25913944 9.22223194 3.56036279 9.34781139 1.1875 7.875 C-0.49106106 5.22464043 -0.20450238 3.06753576 0 0 Z " fill="#82C0B5" transform="translate(43,108)"/>
<path d="M0 0 C0.33 0.99 0.66 1.98 1 3 C0.2884375 4.3921875 0.2884375 4.3921875 -0.4375 5.8125 C-3.43542959 12.21903447 -2.67315785 20.523386 -1.359375 27.30859375 C-1.24078125 28.19675781 -1.1221875 29.08492187 -1 30 C-1.66 30.66 -2.32 31.32 -3 32 C-4.6277833 25.85221129 -5.20190089 20.35987804 -5 14 C-5.66 13.67 -6.32 13.34 -7 13 C-6.401875 11.96875 -5.80375 10.9375 -5.1875 9.875 C-3.33606301 6.63992683 -1.63454714 3.35082164 0 0 Z " fill="#2F9A8B" transform="translate(75,75)"/>
<path d="M0 0 C0.7425 0.0825 1.485 0.165 2.25 0.25 C1.84791618 5.87917348 -0.03930302 8.25386479 -3.75 12.25 C-4.41 10.93 -5.07 9.61 -5.75 8.25 C-6.74 8.25 -7.73 8.25 -8.75 8.25 C-6.92599593 3.9939905 -4.88604345 0.44418577 0 0 Z " fill="#37A88F" transform="translate(145.75,81.75)"/>
<path d="M0 0 C0.99 0.33 1.98 0.66 3 1 C4.1875 3.5625 4.1875 3.5625 5 6 C3.68 6 2.36 6 1 6 C-0.93212692 6.62284938 -0.93212692 6.62284938 -2.75 7.5 C-4.35875 8.2425 -4.35875 8.2425 -6 9 C-8 6 -8 6 -8 3 C-5.36 2.34 -2.72 1.68 0 1 C0 0.67 0 0.34 0 0 Z " fill="#8BA6B2" transform="translate(56,134)"/>
<path d="M0 0 C1.32229189 2.64458379 1.09677194 4.67761301 1.0625 7.625 C1.05347656 8.62789062 1.04445313 9.63078125 1.03515625 10.6640625 C1.02355469 11.43492188 1.01195313 12.20578125 1 13 C2.11375 13.0825 3.2275 13.165 4.375 13.25 C8 14 8 14 9.4375 16.0625 C9.623125 16.701875 9.80875 17.34125 10 18 C6.16526716 18.35671933 4.44657125 18.29771416 1.1875 16.125 C-1.05882748 13.9428533 -1.91593901 13.0302358 -2.16796875 9.94140625 C-2.17441406 9.15636719 -2.18085937 8.37132813 -2.1875 7.5625 C-2.20167969 6.78003906 -2.21585937 5.99757813 -2.23046875 5.19140625 C-2 3 -2 3 0 0 Z " fill="#D2EFEF" transform="translate(89,86)"/>
<path d="M0 0 C1 2 1 2 0.3984375 3.91015625 C-0.62541328 6.06336915 -1.62322305 8.05100012 -3 10 C-5.625 10.875 -5.625 10.875 -8 11 C-8.66 11.66 -9.32 12.32 -10 13 C-10.6875 11.375 -10.6875 11.375 -11 9 C-9.5625 5.75 -9.5625 5.75 -8 3 C-6.35 3.33 -4.7 3.66 -3 4 C-2.01 2.68 -1.02 1.36 0 0 Z " fill="#1C5E68" transform="translate(120,113)"/>
<path d="M0 0 C0.66 0.99 1.32 1.98 2 3 C1.505 3.70125 1.01 4.4025 0.5 5.125 C-1.20530412 8.39349956 -1.16126158 10.37161436 -1 14 C-1.33 14.66 -1.66 15.32 -2 16 C-1.01 16 -0.02 16 1 16 C1 17.98 1 19.96 1 22 C1.66 22.33 2.32 22.66 3 23 C2.67 23.99 2.34 24.98 2 26 C1.01 25.67 0.02 25.34 -1 25 C-3.04102015 20.49894232 -3.21732794 16.5183808 -3.125 11.625 C-3.10695312 10.37976563 -3.08890625 9.13453125 -3.0703125 7.8515625 C-3.04710937 6.91054687 -3.02390625 5.96953125 -3 5 C-2.34 5 -1.68 5 -1 5 C-0.67 3.35 -0.34 1.7 0 0 Z " fill="#259A8D" transform="translate(61,82)"/>
<path d="M0 0 C1.43791516 0.14168137 2.8753237 0.28851043 4.3125 0.4375 C5.11300781 0.51871094 5.91351563 0.59992188 6.73828125 0.68359375 C9 1 9 1 12 2 C11.34 3.32 10.68 4.64 10 6 C9.2575 5.979375 8.515 5.95875 7.75 5.9375 C5.06766043 5.89438005 5.06766043 5.89438005 2.8125 6.5625 C1 7 1 7 -1 6 C-0.67 4.02 -0.34 2.04 0 0 Z " fill="#71C296" transform="translate(131,76)"/>
<path d="M0 0 C0.66 0.33 1.32 0.66 2 1 C2.66 0.67 3.32 0.34 4 0 C5.99960012 -0.039992 8.00047242 -0.04346799 10 0 C6.87968835 3.79864027 3.49313088 5.24269187 -0.9765625 6.97265625 C-3.32602152 7.95735125 -3.32602152 7.95735125 -5 11 C-4.46884894 6.48521602 -2.63379708 3.65333143 0 0 Z " fill="#85CA98" transform="translate(162,65)"/>
<path d="M0 0 C4.10811428 1.44992269 7.46855666 3.45407573 11 6 C11 6.33 11 6.66 11 7 C8.54137599 7.05383848 6.0839245 7.09359038 3.625 7.125 C2.57699219 7.15013672 2.57699219 7.15013672 1.5078125 7.17578125 C-0.32897486 7.19344267 -2.16601963 7.10303261 -4 7 C-4.66 6.34 -5.32 5.68 -6 5 C-3.69 4.34 -1.38 3.68 1 3 C0.67 2.01 0.34 1.02 0 0 Z " fill="#26364C" transform="translate(72,147)"/>
<path d="M0 0 C-2.6598561 3.44216672 -5.90288286 3.99504674 -10 5 C-10 5.66 -10 6.32 -10 7 C-12.31 7.33 -14.62 7.66 -17 8 C-17 7.01 -17 6.02 -17 5 C-14.73392948 3.96724659 -12.46318061 2.94866449 -10.1875 1.9375 C-9.22360352 1.49567383 -9.22360352 1.49567383 -8.24023438 1.04492188 C-3.33984375 -1.11328125 -3.33984375 -1.11328125 0 0 Z " fill="#9ECCA0" transform="translate(98,48)"/>
<path d="M0 0 C1.32 0.66 2.64 1.32 4 2 C4.125 4.375 4.125 4.375 4 7 C3.34 7.66 2.68 8.32 2 9 C-0.625 8.625 -0.625 8.625 -3 8 C-3.36923077 3.44615385 -3.36923077 3.44615385 -1.5 1.1875 C-1.005 0.795625 -0.51 0.40375 0 0 Z " fill="#3E9F8F" transform="translate(186,99)"/>
<path d="M0 0 C0.98484375 0.01804687 1.9696875 0.03609375 2.984375 0.0546875 C4.10585937 0.08949219 4.10585937 0.08949219 5.25 0.125 C5.91 1.445 6.57 2.765 7.25 4.125 C2.795 4.62 2.795 4.62 -1.75 5.125 C-2.08 4.465 -2.41 3.805 -2.75 3.125 C-5.07156597 2.71770772 -7.4068787 2.38061323 -9.75 2.125 C-6.40060119 0.09941119 -3.88037449 -0.09238987 0 0 Z " fill="#79C494" transform="translate(105.75,70.875)"/>
<path d="M0 0 C3.26739717 1.63369858 3.71704704 4.70894675 5 8 C5.37308631 9.32276056 5.73046415 10.65232077 6 12 C5.67 11.34 5.34 10.68 5 10 C1.45481116 11.39759905 1.45481116 11.39759905 -2 13 C-1.85769192 11.58297487 -1.71099254 10.1663904 -1.5625 8.75 C-1.48128906 7.96109375 -1.40007812 7.1721875 -1.31640625 6.359375 C-1.02365007 4.17635361 -0.57935581 2.1226818 0 0 Z " fill="#2D3954" transform="translate(112,148)"/>
<path d="M0 0 C3.625 -0.1875 3.625 -0.1875 7 0 C7 1.98 7 3.96 7 6 C4.75 6.75 4.75 6.75 2 7 C-0.3125 5.0625 -0.3125 5.0625 -2 3 C-1.34 2.01 -0.68 1.02 0 0 Z " fill="#52AAA4" transform="translate(175,120)"/>
<path d="M0 0 C0.99 0 1.98 0 3 0 C3.8125 1.6875 3.8125 1.6875 4 4 C1.8386373 6.51185394 -0.01962439 8.50981219 -3 10 C-5.125 9.5625 -5.125 9.5625 -7 9 C-7 8.34 -7 7.68 -7 7 C-6.21625 6.54625 -5.4325 6.0925 -4.625 5.625 C-1.8764051 3.92348887 -1.12078968 2.95480916 0 0 Z " fill="#313F58" transform="translate(146,180)"/>
<path d="M0 0 C7.93285519 -0.36801906 14.5345605 0.22523488 22 3 C20 5 20 5 17.1796875 5.1953125 C16.08914062 5.17210937 14.99859375 5.14890625 13.875 5.125 C12.77929688 5.10695312 11.68359375 5.08890625 10.5546875 5.0703125 C9.71164063 5.04710937 8.86859375 5.02390625 8 5 C8.99 4.34 9.98 3.68 11 3 C10.67 2.67 10.34 2.34 10 2 C7.96960598 2.03222848 5.93871908 2.06811619 3.91015625 2.16015625 C2 2 2 2 0 0 Z " fill="#F1F3F9" transform="translate(70,154)"/>
<path d="M0 0 C3.77258731 0.29019902 6.32665983 0.51657629 9.4375 2.75 C11.28286337 5.40732325 11.35205968 6.8314629 11 10 C9.02 10 7.04 10 5 10 C5.33 7.69 5.66 5.38 6 3 C5.34 3 4.68 3 4 3 C4 2.34 4 1.68 4 1 C2.68 0.67 1.36 0.34 0 0 Z " fill="#344154" transform="translate(141,164)"/>
<path d="M0 0 C0.33 0 0.66 0 1 0 C1 2.64 1 5.28 1 8 C0.278125 8.12375 -0.44375 8.2475 -1.1875 8.375 C-3.95721894 8.9904931 -6.3970354 9.88444374 -9 11 C-8.67 9.68 -8.34 8.36 -8 7 C-7.01 7 -6.02 7 -5 7 C-5 6.01 -5 5.02 -5 4 C-4.01 4 -3.02 4 -2 4 C-2 3.34 -2 2.68 -2 2 C-1.34 2 -0.68 2 0 2 C0 1.34 0 0.68 0 0 Z " fill="#60B388" transform="translate(194,50)"/>
<path d="M0 0 C1.32 0.33 2.64 0.66 4 1 C3.50168276 4.68754757 2.89932357 6.60490662 0 9 C-0.66 8.34 -1.32 7.68 -2 7 C-3.98 7.66 -5.96 8.32 -8 9 C-7.67 8.01 -7.34 7.02 -7 6 C-5.02 5.67 -3.04 5.34 -1 5 C-0.67 3.35 -0.34 1.7 0 0 Z " fill="#C2E2B3" transform="translate(144,60)"/>
<path d="M0 0 C0.66 1.32 1.32 2.64 2 4 C0.375 5.625 0.375 5.625 -2 7 C-5.0625 6.125 -5.0625 6.125 -8 5 C-8.99 5.33 -9.98 5.66 -11 6 C-10.67 4.35 -10.34 2.7 -10 1 C-9.01 1 -8.02 1 -7 1 C-7 1.66 -7 2.32 -7 3 C-4.03824877 2.38722388 -2.61941217 1.74627478 0 0 Z " fill="#21646F" transform="translate(161,117)"/>
<path d="M0 0 C0.66 0 1.32 0 2 0 C5.09278351 5.31958763 5.09278351 5.31958763 4.625 8.75 C4.41875 9.4925 4.2125 10.235 4 11 C4.33 11.66 4.66 12.32 5 13 C3.68 12.34 2.36 11.68 1 11 C1 10.34 1 9.68 1 9 C0.34 8.67 -0.32 8.34 -1 8 C-0.67 7.34 -0.34 6.68 0 6 C-0.165 5.34 -0.33 4.68 -0.5 4 C-1 2 -1 2 0 0 Z " fill="#25797E" transform="translate(73,105)"/>
<path d="M0 0 C1.22589844 0.29197266 1.22589844 0.29197266 2.4765625 0.58984375 C3.41628906 0.82380859 3.41628906 0.82380859 4.375 1.0625 C3.385 3.0425 2.395 5.0225 1.375 7.0625 C0.7975 6.423125 0.22 5.78375 -0.375 5.125 C-2.60562401 3.08026132 -3.69936391 2.48044801 -6.625 2.0625 C-6.625 1.4025 -6.625 0.7425 -6.625 0.0625 C-3.99249612 -1.25375194 -2.82320944 -0.68563658 0 0 Z " fill="#72C2B2" transform="translate(104.625,90.9375)"/>
<path d="M0 0 C0.9075 0.495 1.815 0.99 2.75 1.5 C6.00873038 3.27937212 6.00873038 3.27937212 10 3 C10.33 3.99 10.66 4.98 11 6 C10.34 6.66 9.68 7.32 9 8 C5.82769937 7.63951129 3.76846473 6.32634855 1.25 4.4375 C0.63640625 3.98246094 0.0228125 3.52742187 -0.609375 3.05859375 C-1.06828125 2.70925781 -1.5271875 2.35992187 -2 2 C-1.34 1.34 -0.68 0.68 0 0 Z " fill="#9AA9BA" transform="translate(66,138)"/>
<path d="M0 0 C0 0.99 0 1.98 0 3 C-0.99 3.495 -0.99 3.495 -2 4 C-3.13350534 6.01669827 -3.13350534 6.01669827 -4 8 C-4.99 7.67 -5.98 7.34 -7 7 C-7.33 7.66 -7.66 8.32 -8 9 C-8.66 9 -9.32 9 -10 9 C-9.1381848 5.76819302 -8.51738545 3.51738545 -6.125 1.125 C-4 0 -4 0 0 0 Z " fill="#A3CFD0" transform="translate(123,121)"/>
<path d="M0 0 C0.33 0.66 0.66 1.32 1 2 C2.65 2 4.3 2 6 2 C1.83860105 4.77426597 -1.33049088 6.18550101 -6.375 5.625 C-7.24125 5.41875 -8.1075 5.2125 -9 5 C-7.875 3.5 -7.875 3.5 -6 2 C-2.8125 1.8125 -2.8125 1.8125 0 2 C0 1.34 0 0.68 0 0 Z " fill="#3D4A61" transform="translate(73,161)"/>
<path d="M0 0 C2.82496717 2.82496717 2.29994045 4.74798877 2.3125 8.6875 C2.24931928 14.27612194 1.76416568 18.16271006 -1 23 C-1.33 23 -1.66 23 -2 23 C-2.042721 21.33388095 -2.04063832 19.66617115 -2 18 C-1.67 17.67 -1.34 17.34 -1 17 C-0.76298761 14.14122091 -0.57780818 11.30116703 -0.4375 8.4375 C-0.39431641 7.63119141 -0.35113281 6.82488281 -0.30664062 5.99414062 C-0.20024738 3.99631195 -0.09959112 1.9981793 0 0 Z " fill="#DFFAF8" transform="translate(157,86)"/>
<path d="M0 0 C3.26460973 1.80412643 4.88929795 2.83394693 7 6 C7 6.99 7 7.98 7 9 C2.545 9.495 2.545 9.495 -2 10 C-1.01 9.67 -0.02 9.34 1 9 C0.67 6.03 0.34 3.06 0 0 Z " fill="#2F3F52" transform="translate(124,184)"/>
<path d="M0 0 C1.2065625 0.0309375 1.2065625 0.0309375 2.4375 0.0625 C2.25 1.875 2.25 1.875 1.4375 4.0625 C-0.875 5.875 -0.875 5.875 -3.5625 7.0625 C-5.875 6.75 -5.875 6.75 -7.5625 6.0625 C-2.79783163 0.0682398 -2.79783163 0.0682398 0 0 Z " fill="#F4F9FA" transform="translate(142.5625,180.9375)"/>
<path d="M0 0 C1.98 0.99 3.96 1.98 6 3 C6 3.66 6 4.32 6 5 C2.37 5.66 -1.26 6.32 -5 7 C-5.33 6.01 -5.66 5.02 -6 4 C-4.7934375 3.566875 -4.7934375 3.566875 -3.5625 3.125 C-0.8673532 2.26737432 -0.8673532 2.26737432 0 0 Z " fill="#6D8797" transform="translate(57,138)"/>
<path d="M0 0 C2 3 2 3 3 6 C1.0625 8.6875 1.0625 8.6875 -1 11 C-1.99 10.01 -2.98 9.02 -4 8 C-2.87548273 5.0280615 -1.77706209 2.66559313 0 0 Z " fill="#257378" transform="translate(117,108)"/>
<path d="M0 0 C0.33 0.66 0.66 1.32 1 2 C3.97 1.34 6.94 0.68 10 0 C5.54841773 3.89513449 0.36096503 5.87351973 -5.5 6.1875 C-6.325 6.125625 -7.15 6.06375 -8 6 C-7.67 5.34 -7.34 4.68 -7 4 C-5.02 4 -3.04 4 -1 4 C-1.33 3.01 -1.66 2.02 -2 1 C-1.34 0.67 -0.68 0.34 0 0 Z " fill="#1A3243" transform="translate(142,128)"/>
<path d="M0 0 C1.7074998 1.28062485 3.37373596 2.61767557 5 4 C5 4.66 5 5.32 5 6 C-0.19548425 8.20808081 -3.58264203 7.93402724 -9 7 C-8.401875 6.71125 -7.80375 6.4225 -7.1875 6.125 C-4.80672208 4.95257974 -4.80672208 4.95257974 -2 3 C-1.01 3 -0.02 3 1 3 C0.67 2.01 0.34 1.02 0 0 Z " fill="#216067" transform="translate(100,103)"/>
<path d="M0 0 C1.65 0 3.3 0 5 0 C5.33 1.65 5.66 3.3 6 5 C5.01 5.66 4.02 6.32 3 7 C0.3125 6.125 0.3125 6.125 -2 5 C-2.33 5.66 -2.66 6.32 -3 7 C-3 4 -3 4 -1 2 C-0.67 1.34 -0.34 0.68 0 0 Z " fill="#323F57" transform="translate(105,174)"/>
<path d="M0 0 C0.66 0 1.32 0 2 0 C0.61172854 3.35498935 -0.85585774 5.15050455 -4 7 C-5.32 7 -6.64 7 -8 7 C-8.33 7.66 -8.66 8.32 -9 9 C-9.99 9 -10.98 9 -12 9 C-11 6 -11 6 -8.75 4.6484375 C-7.8425 4.22820313 -6.935 3.80796875 -6 3.375 C-2.77367937 2.02348275 -2.77367937 2.02348275 0 0 Z " fill="#A2D59F" transform="translate(177,55)"/>
<path d="M0 0 C0.99 0.33 1.98 0.66 3 1 C0.03 6.61 -2.94 12.22 -6 18 C-7.305239 14.08428299 -6.32239848 12.96107003 -4.5625 9.3125 C-3.85287109 7.82169922 -3.85287109 7.82169922 -3.12890625 6.30078125 C-2.75636719 5.54152344 -2.38382812 4.78226562 -2 4 C-1.34 4 -0.68 4 0 4 C0 2.68 0 1.36 0 0 Z " fill="#E0F9F6" transform="translate(127,83)"/>
<path d="M0 0 C0.33 0 0.66 0 1 0 C1 4.62 1 9.24 1 14 C-0.32 14.33 -1.64 14.66 -3 15 C-3.66 14.34 -4.32 13.68 -5 13 C-5 12.01 -5 11.02 -5 10 C-3.35 10 -1.7 10 0 10 C0 6.7 0 3.4 0 0 Z " fill="#535771" transform="translate(109,160)"/>
<path d="M0 0 C2.96199113 0.58940632 5.918712 1.19567208 8.875 1.8125 C10.13763672 2.0609668 10.13763672 2.0609668 11.42578125 2.31445312 C12.23144531 2.48525391 13.03710938 2.65605469 13.8671875 2.83203125 C14.61081543 2.98389893 15.35444336 3.1357666 16.12060547 3.29223633 C18 4 18 4 20 7 C12.95992045 6.0026554 6.56098608 4.7758018 0 2 C0 1.34 0 0.68 0 0 Z " fill="#D6E9CD" transform="translate(110,57)"/>
<path d="M0 0 C0.99 0.33 1.98 0.66 3 1 C3 1.99 3 2.98 3 4 C2.04287109 4.07347656 2.04287109 4.07347656 1.06640625 4.1484375 C0.24011719 4.22320312 -0.58617187 4.29796875 -1.4375 4.375 C-2.26121094 4.44460937 -3.08492187 4.51421875 -3.93359375 4.5859375 C-4.95646484 4.79089844 -4.95646484 4.79089844 -6 5 C-6.33 5.66 -6.66 6.32 -7 7 C-7.33 5.02 -7.66 3.04 -8 1 C-6.576875 1.309375 -6.576875 1.309375 -5.125 1.625 C-4.09375 1.74875 -3.0625 1.8725 -2 2 C-1.34 1.34 -0.68 0.68 0 0 Z " fill="#A2BBC6" transform="translate(54,132)"/>
<path d="M0 0 C1.98 0.99 1.98 0.99 4 2 C4.66 1.34 5.32 0.68 6 0 C6 0.66 6 1.32 6 2 C6.66 2.33 7.32 2.66 8 3 C7.01 4.98 6.02 6.96 5 9 C1.7457985 6.16569547 0.4793247 4.31392226 0 0 Z " fill="#2A7E80" transform="translate(79,99)"/>
<path d="M0 0 C0.99 0 1.98 0 3 0 C3 0.66 3 1.32 3 2 C3.66 2 4.32 2 5 2 C5.33 3.32 5.66 4.64 6 6 C4.02 6.33 2.04 6.66 0 7 C-0.66 5.35 -1.32 3.7 -2 2 C-1.34 2 -0.68 2 0 2 C0 1.34 0 0.68 0 0 Z " fill="#1C8A87" transform="translate(81,95)"/>
<path d="M0 0 C0.99 0.33 1.98 0.66 3 1 C3.33 3.31 3.66 5.62 4 8 C1.69 9.65 -0.62 11.3 -3 13 C-3.66 12.67 -4.32 12.34 -5 12 C-1.25 6.125 -1.25 6.125 1 5 C0.67 3.35 0.34 1.7 0 0 Z " fill="#E3EED6" transform="translate(136,52)"/>
<path d="M0 0 C1.32 0 2.64 0 4 0 C4 4.62 4 9.24 4 14 C3.67 14 3.34 14 3 14 C2.93941406 13.38511719 2.87882812 12.77023438 2.81640625 12.13671875 C2.73261719 11.32847656 2.64882812 10.52023438 2.5625 9.6875 C2.48128906 8.88699219 2.40007812 8.08648437 2.31640625 7.26171875 C2.04734307 4.83912821 2.04734307 4.83912821 1 2 C0.34 1.67 -0.32 1.34 -1 1 C-0.67 0.67 -0.34 0.34 0 0 Z M-3 3 C-2.67 3 -2.34 3 -2 3 C-2 5.31 -2 7.62 -2 10 C-2.33 10 -2.66 10 -3 10 C-3 7.69 -3 5.38 -3 3 Z " fill="#15233C" transform="translate(113,158)"/>
<path d="M0 0 C0.66 0.33 1.32 0.66 2 1 C2 1.66 2 2.32 2 3 C0.7934375 3.4021875 0.7934375 3.4021875 -0.4375 3.8125 C-1.283125 4.204375 -2.12875 4.59625 -3 5 C-3.33 5.99 -3.66 6.98 -4 8 C-6.475 7.01 -6.475 7.01 -9 6 C-9 5.34 -9 4.68 -9 4 C-8.34 4 -7.68 4 -7 4 C-6.67 3.34 -6.34 2.68 -6 2 C-4.02 2 -2.04 2 0 2 C0 1.34 0 0.68 0 0 Z " fill="#40566D" transform="translate(67,144)"/>
<path d="M0 0 C1.828125 0.27734375 1.828125 0.27734375 4 1 C4.77859375 1.24878906 5.5571875 1.49757812 6.359375 1.75390625 C7.14828125 2.02074219 7.9371875 2.28757813 8.75 2.5625 C9.94882813 2.96662109 9.94882813 2.96662109 11.171875 3.37890625 C11.77515625 3.58386719 12.3784375 3.78882813 13 4 C12.67 4.66 12.34 5.32 12 6 C6.94744036 5.36843005 2.70406799 3.86540627 -2 2 C-1.34 1.34 -0.68 0.68 0 0 Z " fill="#4D989C" transform="translate(159,142)"/>
<path d="M0 0 C1.22976562 0.12568359 1.22976562 0.12568359 2.484375 0.25390625 C3.56203125 0.35574219 4.6396875 0.45757812 5.75 0.5625 C6.81734375 0.66691406 7.8846875 0.77132812 8.984375 0.87890625 C11.64141204 0.98560074 13.49960572 0.81930395 16 0 C15.67 0.99 15.34 1.98 15 3 C10.545 3.495 10.545 3.495 6 4 C5.67 3.34 5.34 2.68 5 2 C2.47266765 1.34444881 2.47266765 1.34444881 0 1 C0 0.67 0 0.34 0 0 Z " fill="#7CC897" transform="translate(128,74)"/>
<path d="M0 0 C0.66 0.33 1.32 0.66 2 1 C1.67 1.99 1.34 2.98 1 4 C-0.98 4.33 -2.96 4.66 -5 5 C-5 5.66 -5 6.32 -5 7 C-6.65 7 -8.3 7 -10 7 C-9 4 -9 4 -7.1875 3.0859375 C-6.465625 2.85132812 -5.74375 2.61671875 -5 2.375 C-2.25730729 1.58884867 -2.25730729 1.58884867 0 0 Z " fill="#2DA186" transform="translate(181,70)"/>
<path d="M0 0 C2.31 0.33 4.62 0.66 7 1 C7 1.99 7 2.98 7 4 C6.34 3.67 5.68 3.34 5 3 C4.67 6.3 4.34 9.6 4 13 C3.67 13 3.34 13 3 13 C2.92652344 12.09507813 2.92652344 12.09507813 2.8515625 11.171875 C2.77679688 10.37265625 2.70203125 9.5734375 2.625 8.75 C2.55539063 7.96109375 2.48578125 7.1721875 2.4140625 6.359375 C1.98492887 3.914123 1.21399362 2.15163097 0 0 Z " fill="#C7DDC2" transform="translate(146,40)"/>
<path d="M0 0 C3.4375 0.8125 3.4375 0.8125 5.4375 2.8125 C1.35306885 4.34416168 -2.35705657 3.44331652 -6.5625 2.8125 C-4.51257555 -0.20209478 -3.75198575 -0.19747293 0 0 Z " fill="#205666" transform="translate(147.5625,146.1875)"/>
<path d="M0 0 C0.66 0 1.32 0 2 0 C2 0.66 2 1.32 2 2 C2.99 1.67 3.98 1.34 5 1 C5.66 1.66 6.32 2.32 7 3 C6.34 3.66 5.68 4.32 5 5 C4.05125 4.835 3.1025 4.67 2.125 4.5 C-1.20621901 3.96700496 -2.24797917 4.20060177 -5 6 C-3.38405168 3.95880212 -1.7143618 1.95927063 0 0 Z " fill="#297E81" transform="translate(154,111)"/>
<path d="M0 0 C0.98446952 3.93787809 0.77318704 5.2307132 0 9 C0.33 9.99 0.66 10.98 1 12 C-0.32 12.33 -1.64 12.66 -3 13 C-3 12.34 -3 11.68 -3 11 C-3.66 10.67 -4.32 10.34 -5 10 C-3.35 6.7 -1.7 3.4 0 0 Z " fill="#31928E" transform="translate(159,100)"/>
<path d="M0 0 C-1.279673 2.55934601 -2.24201036 2.6989233 -4.875 3.6875 C-5.57367188 3.95949219 -6.27234375 4.23148437 -6.9921875 4.51171875 C-9 5 -9 5 -12 4 C-7.97476284 -0.30283972 -5.79398913 -1.40934871 0 0 Z " fill="#57B693" transform="translate(140,82)"/>
<path d="M0 0 C0.8125 1.6875 0.8125 1.6875 1 4 C-1.375 6.5625 -1.375 6.5625 -4 9 C-4.33 9.99 -4.66 10.98 -5 12 C-5.99 12.33 -6.98 12.66 -8 13 C-8.66 12.34 -9.32 11.68 -10 11 C-9.52949219 10.62488281 -9.05898437 10.24976562 -8.57421875 9.86328125 C-4.93360516 6.87089285 -2.14546696 4.29093391 0 0 Z " fill="#DEF7F5" transform="translate(192,64)"/>
<path d="M0 0 C0.33 0 0.66 0 1 0 C1.33 5.28 1.66 10.56 2 16 C1.34 16.33 0.68 16.66 0 17 C-0.66 16.34 -1.32 15.68 -2 15 C-1.66015625 13.234375 -1.66015625 13.234375 -1 11 C-0.78351622 9.08639029 -0.59743032 7.16916379 -0.4375 5.25 C-0.35371094 4.26515625 -0.26992187 3.2803125 -0.18359375 2.265625 C-0.12300781 1.51796875 -0.06242187 0.7703125 0 0 Z " fill="#1F2D49" transform="translate(102,157)"/>
<path d="M0 0 C1.32 0 2.64 0 4 0 C3.38461538 6.52307692 3.38461538 6.52307692 1.4375 8.9375 C0.963125 9.288125 0.48875 9.63875 0 10 C-1.231394 6.30581799 -0.64432764 3.7943739 0 0 Z " fill="#E9EFF2" transform="translate(98,135)"/>
<path d="M0 0 C0.33 0.66 0.66 1.32 1 2 C-1.18243243 7.62837838 -1.18243243 7.62837838 -4.0625 8.9375 C-6 9 -6 9 -8 8 C-8 7.34 -8 6.68 -8 6 C-7.34 6 -6.68 6 -6 6 C-5.67 5.01 -5.34 4.02 -5 3 C-4.01 3.33 -3.02 3.66 -2 4 C-1.34 2.68 -0.68 1.36 0 0 Z " fill="#B5D4DA" transform="translate(121,124)"/>
<path d="M0 0 C2.64 0 5.28 0 8 0 C6.25 4.875 6.25 4.875 4 6 C4 5.34 4 4.68 4 4 C3.01 4 2.02 4 1 4 C0.67 2.68 0.34 1.36 0 0 Z " fill="#96D0C7" transform="translate(170,139)"/>
<path d="M0 0 C1.15510154 4.62040617 0.77848158 6.63463613 -1 11 C-2.65 11.66 -4.3 12.32 -6 13 C-4.02 8.71 -2.04 4.42 0 0 Z " fill="#40998F" transform="translate(124,93)"/>
<path d="M0 0 C0.33 0.66 0.66 1.32 1 2 C2.88764903 2.68472665 2.88764903 2.68472665 5.0625 3.125 C5.79597656 3.29257813 6.52945313 3.46015625 7.28515625 3.6328125 C7.85105469 3.75398438 8.41695312 3.87515625 9 4 C8.01 5.32 7.02 6.64 6 8 C2.535 6.02 2.535 6.02 -1 4 C-0.67 2.68 -0.34 1.36 0 0 Z " fill="#64B297" transform="translate(150,77)"/>
<path d="M0 0 C0.66 0.33 1.32 0.66 2 1 C1.01 2.485 1.01 2.485 0 4 C-0.70812814 6.32108669 -1.38024152 8.65377147 -2 11 C-2.66 11 -3.32 11 -4 11 C-4.36630156 7.06225823 -4.30233203 5.43460229 -2 2.125 C-1.34 1.42375 -0.68 0.7225 0 0 Z " fill="#303D4F" transform="translate(64,166)"/>
<path d="M0 0 C0.33 2.97 0.66 5.94 1 9 C-1.475 8.01 -1.475 8.01 -4 7 C-3.625 4.0625 -3.625 4.0625 -3 1 C-1 0 -1 0 0 0 Z " fill="#948BA4" transform="translate(108,157)"/>
<path d="M0 0 C1.23556641 0.01740234 1.23556641 0.01740234 2.49609375 0.03515625 C3.32238281 0.04417969 4.14867188 0.05320313 5 0.0625 C5.63808594 0.07410156 6.27617188 0.08570313 6.93359375 0.09765625 C4.93359375 3.09765625 4.93359375 3.09765625 2.98828125 3.609375 C2.26898438 3.66738281 1.5496875 3.72539062 0.80859375 3.78515625 C-1.10953125 3.93984375 -1.10953125 3.93984375 -3.06640625 4.09765625 C-3.06640625 0.14491523 -3.06640625 0.14491523 0 0 Z " fill="#2F465E" transform="translate(67.06640625,148.90234375)"/>
<path d="M0 0 C0.99 0.33 1.98 0.66 3 1 C3 1.66 3 2.32 3 3 C3.66 3 4.32 3 5 3 C4.67 4.65 4.34 6.3 4 8 C2.35 7.01 0.7 6.02 -1 5 C-0.67 3.35 -0.34 1.7 0 0 Z " fill="#207F7E" transform="translate(118,106)"/>
<path d="M0 0 C0.99 0 1.98 0 3 0 C2.58578031 4.83256305 0.53586014 6.82679218 -3 10 C-3.66 9.67 -4.32 9.34 -5 9 C-4.0409375 7.88625 -4.0409375 7.88625 -3.0625 6.75 C-1.21666593 4.2888879 -0.43930826 2.96533074 0 0 Z " fill="#E7FAF8" transform="translate(111,95)"/>
<path d="M0 0 C3.43595166 1.52708963 6.11912454 3.59927045 9 6 C8.01 6.495 8.01 6.495 7 7 C3.16917814 5.40382422 1.33343353 4.50015029 -1 1 C-0.67 0.67 -0.34 0.34 0 0 Z " fill="#E8EDF0" transform="translate(105,185)"/>
<path d="M0 0 C5.445 1.485 5.445 1.485 11 3 C5.76844369 5.61577816 4.40261966 4.6207859 -1 3 C-0.67 2.01 -0.34 1.02 0 0 Z " fill="#AAA5B4" transform="translate(86,153)"/>
<path d="M0 0 C2.97 0.33 5.94 0.66 9 1 C8.67 2.32 8.34 3.64 8 5 C8 4.01 8 3.02 8 2 C3.44262737 2.43820891 0.42346555 2.85041169 -3 6 C-3 5.01 -3 4.02 -3 3 C-2.34 3 -1.68 3 -1 3 C-0.67 2.01 -0.34 1.02 0 0 Z " fill="#D9F1EE" transform="translate(174,118)"/>
<path d="M0 0 C0.66 0.33 1.32 0.66 2 1 C2 2.65 2 4.3 2 6 C0.35 6 -1.3 6 -3 6 C-3.33 5.01 -3.66 4.02 -4 3 C-2.68 2.67 -1.36 2.34 0 2 C0 1.34 0 0.68 0 0 Z " fill="#509990" transform="translate(49,111)"/>
<path d="M0 0 C0.99 -0.33 1.98 -0.66 3 -1 C2.67 -0.01 2.34 0.98 2 2 C1.2575 1.979375 0.515 1.95875 -0.25 1.9375 C-2.93233957 1.89438005 -2.93233957 1.89438005 -5.1875 2.5625 C-7 3 -7 3 -9 2 C-8 0 -8 0 -6.1875 -0.6875 C-3.79336487 -1.0295193 -2.31451312 -0.59729371 0 0 Z " fill="#65BC95" transform="translate(139,80)"/>
<path d="M0 0 C0 0.66 0 1.32 0 2 C-2.47346304 4.47346304 -3.70761168 4.98313144 -7.25 5.1875 C-8.1575 5.125625 -9.065 5.06375 -10 5 C-7.31217681 1.88778367 -4.19734673 0 0 0 Z " fill="#5CB58A" transform="translate(179,63)"/>
<path d="M0 0 C-0.99 0.495 -0.99 0.495 -2 1 C-2 1.66 -2 2.32 -2 3 C-4.31 3.66 -6.62 4.32 -9 5 C-9 4.34 -9 3.68 -9 3 C-8.34 3 -7.68 3 -7 3 C-6.67 2.01 -6.34 1.02 -6 0 C-3.50907189 -1.24546405 -2.58919267 -0.7767578 0 0 Z " fill="#7AC28E" transform="translate(194,51)"/>
<path d="M0 0 C2.475 0.99 2.475 0.99 5 2 C4.67 2.66 4.34 3.32 4 4 C2.68 3.67 1.36 3.34 0 3 C0.061875 4.918125 0.061875 4.918125 0.125 6.875 C0.1953125 9.0546875 0.1953125 9.0546875 0 11 C-0.66 11.66 -1.32 12.32 -2 13 C-1.85915204 11.20793453 -1.71216299 9.41635083 -1.5625 7.625 C-1.48128906 6.62726562 -1.40007812 5.62953125 -1.31640625 4.6015625 C-1 2 -1 2 0 0 Z " fill="#ADD2A7" transform="translate(151,43)"/>
<path d="M0 0 C1.32 0.99 2.64 1.98 4 3 C4.33 2.34 4.66 1.68 5 1 C5.33 2.98 5.66 4.96 6 7 C5.01 7 4.02 7 3 7 C3 6.34 3 5.68 3 5 C2.01 5 1.02 5 0 5 C0 3.35 0 1.7 0 0 Z " fill="#AAAAC0" transform="translate(106,145)"/>
<path d="M0 0 C3.72940389 1.24313463 4.84656811 2.76985216 7 6 C6.67 6.99 6.34 7.98 6 9 C5.34 8.67 4.68 8.34 4 8 C4 7.01 4 6.02 4 5 C3.01 4.67 2.02 4.34 1 4 C1 3.34 1 2.68 1 2 C0.34 1.67 -0.32 1.34 -1 1 C-0.67 0.67 -0.34 0.34 0 0 Z " fill="#E0F3F4" transform="translate(61,112)"/>
<path d="M0 0 C1.32 0.66 2.64 1.32 4 2 C4 3.65 4 5.3 4 7 C3.34 6.01 2.68 5.02 2 4 C0.68 4.33 -0.64 4.66 -2 5 C-2 2 -2 2 0 0 Z " fill="#78C3B0" transform="translate(186,99)"/>
<path d="M0 0 C1.23593891 3.70781672 0.5678132 4.67510253 -0.9375 8.1875 C-1.31777344 9.08855469 -1.69804687 9.98960938 -2.08984375 10.91796875 C-2.54037109 11.94857422 -2.54037109 11.94857422 -3 13 C-3.82638376 10.10765685 -4 8.11257569 -4 5 C-2.5625 3.375 -2.5625 3.375 -1 2 C-0.67 1.34 -0.34 0.68 0 0 Z " fill="#2C8D82" transform="translate(144,89)"/>
<path d="M0 0 C0.66 0.33 1.32 0.66 2 1 C2 1.66 2 2.32 2 3 C1.01 3.495 1.01 3.495 0 4 C-0.72693904 5.97888961 -1.39816251 7.97954558 -2 10 C-2.66 10 -3.32 10 -4 10 C-3.67 7.69 -3.34 5.38 -3 3 C-2.01 2.67 -1.02 2.34 0 2 C0 1.34 0 0.68 0 0 Z " fill="#45AB94" transform="translate(62,77)"/>
<path d="M0 0 C2.25 0.25 2.25 0.25 4 1 C3.01 2.32 2.02 3.64 1 5 C-0.65 4.67 -2.3 4.34 -4 4 C-2.25 1.9375 -2.25 1.9375 0 0 Z " fill="#8FC79B" transform="translate(78,55)"/>
<path d="M0 0 C-1.375 1.5 -1.375 1.5 -3 3 C-3.66 3 -4.32 3 -5 3 C-5.33 4.32 -5.66 5.64 -6 7 C-6.66 7 -7.32 7 -8 7 C-7.1875 3.5625 -7.1875 3.5625 -6 0 C-3 -1 -3 -1 0 0 Z " fill="#89C994" transform="translate(190,51)"/>
<path d="M0 0 C0.598125 0.309375 1.19625 0.61875 1.8125 0.9375 C4.08956772 2.10209704 4.08956772 2.10209704 7 3 C6.67 3.99 6.34 4.98 6 6 C4.35 5.67 2.7 5.34 1 5 C0.67 5.99 0.34 6.98 0 8 C0 5.36 0 2.72 0 0 Z " fill="#323E58" transform="translate(97,152)"/>
<path d="M0 0 C0 3 0 3 -1.6875 4.75 C-4 6 -4 6 -6.75 5.6875 C-7.4925 5.460625 -8.235 5.23375 -9 5 C-6.08596738 3.05731159 -3.14191424 1.53604696 0 0 Z " fill="#365B69" transform="translate(145,119)"/>
<path d="M0 0 C1.2065625 0.0309375 1.2065625 0.0309375 2.4375 0.0625 C2.1075 2.0425 1.7775 4.0225 1.4375 6.0625 C0.4475 6.0625 -0.5425 6.0625 -1.5625 6.0625 C-2.2225 4.4125 -2.8825 2.7625 -3.5625 1.0625 C-2.5625 0.0625 -2.5625 0.0625 0 0 Z " fill="#20676F" transform="translate(132.5625,111.9375)"/>
<path d="M0 0 C1.32 0.33 2.64 0.66 4 1 C3.67 2.65 3.34 4.3 3 6 C0.525 5.01 0.525 5.01 -2 4 C-1.34 2.68 -0.68 1.36 0 0 Z " fill="#57B1A9" transform="translate(124,110)"/>
<path d="M0 0 C1.98 0.99 1.98 0.99 4 2 C3.74438677 4.3431213 3.40729228 6.67843403 3 9 C2.01 9.495 2.01 9.495 1 10 C1.33 8.02 1.66 6.04 2 4 C1.34 4 0.68 4 0 4 C0 2.68 0 1.36 0 0 Z " fill="#4B9D8A" transform="translate(112,90)"/>
<path d="M0 0 C1.32 0 2.64 0 4 0 C4 0.66 4 1.32 4 2 C4.99 2.33 5.98 2.66 7 3 C3.535 4.485 3.535 4.485 0 6 C0 4.02 0 2.04 0 0 Z " fill="#5AB48B" transform="translate(95,75)"/>
<path d="M0 0 C0.66 0.33 1.32 0.66 2 1 C2 1.66 2 2.32 2 3 C0.56342755 3.33730842 -0.87430093 3.66969591 -2.3125 4 C-3.51326172 4.2784375 -3.51326172 4.2784375 -4.73828125 4.5625 C-7 5 -7 5 -10 5 C-10 4.34 -10 3.68 -10 3 C-6.56484998 2.37542727 -3.50935186 2 0 2 C0 1.34 0 0.68 0 0 Z " fill="#597486" transform="translate(63,141)"/>
<path d="M0 0 C-0.125 1.875 -0.125 1.875 -1 4 C-4.0625 5.25 -4.0625 5.25 -7 6 C-6.75 4.125 -6.75 4.125 -6 2 C-3.85331506 0.61504198 -2.56128588 0 0 0 Z " fill="#819BA9" transform="translate(57,137)"/>
<path d="M0 0 C-2 3 -2 3 -4.5 3.8125 C-5.7375 3.9053125 -5.7375 3.9053125 -7 4 C-7.66 3.34 -8.32 2.68 -9 2 C-3.375 -1.125 -3.375 -1.125 0 0 Z " fill="#E0EAED" transform="translate(153,130)"/>
<path d="M0 0 C0.66 0 1.32 0 2 0 C4 2 4 2 6 5 C3.36 4.67 0.72 4.34 -2 4 C-1.34 2.68 -0.68 1.36 0 0 Z " fill="#3D9291" transform="translate(172,123)"/>
<path d="M0 0 C2.31 1.98 4.62 3.96 7 6 C6.67 6.66 6.34 7.32 6 8 C4.125 7.375 4.125 7.375 2 6 C0.75 2.875 0.75 2.875 0 0 Z " fill="#386B75" transform="translate(78,111)"/>
<path d="M0 0 C1.65 0 3.3 0 5 0 C4.67 1.32 4.34 2.64 4 4 C2.02 4 0.04 4 -2 4 C-1.34 2.68 -0.68 1.36 0 0 Z " fill="#71BEB7" transform="translate(121,114)"/>
<path d="M0 0 C0.61875 0.78375 1.2375 1.5675 1.875 2.375 C3.89858661 4.96837647 3.89858661 4.96837647 6 7 C5.67 7.99 5.34 8.98 5 10 C1.32769295 6.92000054 0.43197635 4.7517398 0 0 Z " fill="#2A7F80" transform="translate(61,106)"/>
<path d="M0 0 C0.66 0.33 1.32 0.66 2 1 C0.75 3 0.75 3 -1 5 C-2.32 5 -3.64 5 -5 5 C-5 4.01 -5 3.02 -5 2 C-2.625 0.9375 -2.625 0.9375 0 0 Z " fill="#EEF2F4" transform="translate(79,175)"/>
<path d="M0 0 C0.99 0.66 1.98 1.32 3 2 C-0.3125 2.6875 -0.3125 2.6875 -4 3 C-5.9375 1.5625 -5.9375 1.5625 -7 0 C-4.28569464 -1.35715268 -2.88661718 -0.77445827 0 0 Z " fill="#69959F" transform="translate(141,148)"/>
<path d="M0 0 C0.125 2.875 0.125 2.875 0 6 C-0.66 6.66 -1.32 7.32 -2 8 C-2.66 7.67 -3.32 7.34 -4 7 C-3.814375 6.38125 -3.62875 5.7625 -3.4375 5.125 C-2.76313824 2.95839822 -2.76313824 2.95839822 -4 1 C-1 0 -1 0 0 0 Z " fill="#314D61" transform="translate(109,124)"/>
<path d="M0 0 C2.31 0 4.62 0 7 0 C7 1.98 7 3.96 7 6 C6.67 5.34 6.34 4.68 6 4 C5.34 4 4.68 4 4 4 C4 3.34 4 2.68 4 2 C2.68 1.34 1.36 0.68 0 0 Z " fill="#7CC0B4" transform="translate(175,120)"/>
<path d="M0 0 C0.33 0.66 0.66 1.32 1 2 C0.67 2.99 0.34 3.98 0 5 C-2.0625 5.6875 -2.0625 5.6875 -4 6 C-2.84826645 3.53199953 -1.95216435 1.95216435 0 0 Z M-7 6 C-6.01 6 -5.02 6 -4 6 C-4 6.66 -4 7.32 -4 8 C-4.99 8.33 -5.98 8.66 -7 9 C-7 8.01 -7 7.02 -7 6 Z " fill="#B8D4D0" transform="translate(112,100)"/>
<path d="M0 0 C1.27351308 2.54702616 0.80191925 3.4282945 0.0625 6.125 C-0.13214844 6.84945312 -0.32679687 7.57390625 -0.52734375 8.3203125 C-0.68332031 8.87460938 -0.83929688 9.42890625 -1 10 C-1.99 10 -2.98 10 -4 10 C-3.43454163 6.04179141 -2.19097652 3.3340947 0 0 Z " fill="#45A497" transform="translate(82,82)"/>
<path d="M0 0 C1.32 0 2.64 0 4 0 C3.34 1.65 2.68 3.3 2 5 C0.68 5 -0.64 5 -2 5 C-1.125 1.125 -1.125 1.125 0 0 Z " fill="#5AB391" transform="translate(75,72)"/>
<path d="M0 0 C1.32 0 2.64 0 4 0 C3.3125 1.9375 3.3125 1.9375 2 4 C-0.625 4.75 -0.625 4.75 -3 5 C-2.67 4.01 -2.34 3.02 -2 2 C-1.34 2 -0.68 2 0 2 C0 1.34 0 0.68 0 0 Z " fill="#ABD7A7" transform="translate(138,67)"/>
<path d="M0 0 C2.62901288 1.52206009 4.84365964 2.84365964 7 5 C4.6875 5.6875 4.6875 5.6875 2 6 C0.1875 4.5625 0.1875 4.5625 -1 3 C-0.67 2.01 -0.34 1.02 0 0 Z " fill="#2F3A4F" transform="translate(136,174)"/>
<path d="M0 0 C0.99 0.33 1.98 0.66 3 1 C2.67 2.32 2.34 3.64 2 5 C0.35 5.33 -1.3 5.66 -3 6 C-2.01 4.02 -1.02 2.04 0 0 Z " fill="#CFE4C0" transform="translate(141,60)"/>
<path d="M0 0 C-1.1875 1.5625 -1.1875 1.5625 -3 3 C-5.6875 2.6875 -5.6875 2.6875 -8 2 C-5.14066998 -0.85933002 -3.8625627 -1.2875209 0 0 Z M-8 3 C-6 4 -6 4 -6 4 Z " fill="#AED2A8" transform="translate(98,48)"/>
<path d="M0 0 C1.32 0.66 2.64 1.32 4 2 C2.35 2.33 0.7 2.66 -1 3 C-1.33 3.99 -1.66 4.98 -2 6 C-2.66 6 -3.32 6 -4 6 C-2.84826645 3.53199953 -1.95216435 1.95216435 0 0 Z " fill="#343F51" transform="translate(139,165)"/>
<path d="M0 0 C-6.75 4 -6.75 4 -9 4 C-9 3.34 -9 2.68 -9 2 C-3.375 -1.125 -3.375 -1.125 0 0 Z " fill="#E4F1F5" transform="translate(139,152)"/>
<path d="M0 0 C1.32 0 2.64 0 4 0 C3.6875 1.875 3.6875 1.875 3 4 C2.01 4.66 1.02 5.32 0 6 C0 4.02 0 2.04 0 0 Z " fill="#C9DCE0" transform="translate(44,124)"/>
<path d="M0 0 C0 0.66 0 1.32 0 2 C0.66 2.33 1.32 2.66 2 3 C1.34 3 0.68 3 0 3 C-0.33 3.99 -0.66 4.98 -1 6 C-2.5 4.625 -2.5 4.625 -4 3 C-4 2.34 -4 1.68 -4 1 C-2 0 -2 0 0 0 Z " fill="#326773" transform="translate(74,119)"/>
<path d="M0 0 C0.99 0 1.98 0 3 0 C1.52307692 4.67692308 1.52307692 4.67692308 -1.125 6.3125 C-2.053125 6.6528125 -2.053125 6.6528125 -3 7 C-3 6.34 -3 5.68 -3 5 C-2.34 5 -1.68 5 -1 5 C-0.67 3.35 -0.34 1.7 0 0 Z " fill="#3F897D" transform="translate(107,94)"/>
<path d="M0 0 C0.99 0 1.98 0 3 0 C2.34 3.96 1.68 7.92 1 12 C0.67 12 0.34 12 0 12 C0 8.04 0 4.08 0 0 Z " fill="#5AB4A4" transform="translate(159,88)"/>
<path d="M0 0 C0 0.33 0 0.66 0 1 C-1.45635371 1.22174933 -2.91522956 1.42698698 -4.375 1.625 C-5.18710938 1.74101563 -5.99921875 1.85703125 -6.8359375 1.9765625 C-7.55007812 1.98429687 -8.26421875 1.99203125 -9 2 C-9.66 1.34 -10.32 0.68 -11 0 C-7.18243176 -1.37432457 -3.92744671 -0.67975039 0 0 Z " fill="#88C4A3" transform="translate(107,72)"/>
<path d="M0 0 C2.475 0.99 2.475 0.99 5 2 C3 3 1 4 -1 5 C-1.66 5.99 -2.32 6.98 -3 8 C-2.45276317 4.62537285 -1.9451 2.91765 0 0 Z " fill="#83C4A4" transform="translate(160,68)"/>
<path d="M0 0 C0.33 0.66 0.66 1.32 1 2 C1.66 2.33 2.32 2.66 3 3 C1.625 5.5 1.625 5.5 0 8 C-0.66 8 -1.32 8 -2 8 C-1.34 5.36 -0.68 2.72 0 0 Z " fill="#E2F7F0" transform="translate(195,55)"/>
<path d="M0 0 C2.475 0.495 2.475 0.495 5 1 C5 1.99 5 2.98 5 4 C4.01 4 3.02 4 2 4 C1.01 4.495 1.01 4.495 0 5 C0 3.35 0 1.7 0 0 Z " fill="#A2D39E" transform="translate(151,46)"/>
<path d="M0 0 C0.99 0 1.98 0 3 0 C2.67 1.65 2.34 3.3 2 5 C0.35 5 -1.3 5 -3 5 C-2.01 4.67 -1.02 4.34 0 4 C0 2.68 0 1.36 0 0 Z " fill="#212F3E" transform="translate(143,175)"/>
<path d="M0 0 C0 0.99 0 1.98 0 3 C-0.99 3.33 -1.98 3.66 -3 4 C-5.1875 2.5625 -5.1875 2.5625 -7 1 C-4 0 -4 0 0 0 Z " fill="#7F778F" transform="translate(97,157)"/>
<path d="M0 0 C1.31223496 3.93670488 0.24296256 6.12488144 -1 10 C-2.1875 8.375 -2.1875 8.375 -3 6 C-1.625 2.75 -1.625 2.75 0 0 Z " fill="#37616B" transform="translate(112,116)"/>
<path d="M0 0 C0.928125 0.2784375 0.928125 0.2784375 1.875 0.5625 C4.04160178 1.23686176 4.04160178 1.23686176 6 0 C6.33 0.99 6.66 1.98 7 3 C5.02 3.66 3.04 4.32 1 5 C0.67 3.35 0.34 1.7 0 0 Z " fill="#DFF2F3" transform="translate(74,102)"/>
<path d="M0 0 C1.98 0 3.96 0 6 0 C6.33 0.66 6.66 1.32 7 2 C6.67 2.66 6.34 3.32 6 4 C1.125 2.25 1.125 2.25 0 0 Z " fill="#34AD91" transform="translate(166,86)"/>
<path d="M0 0 C0 0.99 0 1.98 0 3 C-2 4.6875 -2 4.6875 -4 6 C-4.33 5.34 -4.66 4.68 -5 4 C-3 1 -3 1 0 0 Z " fill="#40AC8E" transform="translate(131,86)"/>
<path d="M0 0 C0.33 0.66 0.66 1.32 1 2 C-0.32 3.65 -1.64 5.3 -3 7 C-3.66 6.67 -4.32 6.34 -5 6 C-3.63016497 2.83884224 -3.0109362 2.0072908 0 0 Z " fill="#36907A" transform="translate(190,65)"/>
<path d="M0 0 C1.32 0.66 2.64 1.32 4 2 C3.34 2 2.68 2 2 2 C2 2.99 2 3.98 2 5 C0.68 5 -0.64 5 -2 5 C-1.34 3.35 -0.68 1.7 0 0 Z " fill="#75C08F" transform="translate(74,59)"/>
</svg>
